<?xml version="1.0" encoding="UTF-8" standalone="no"?>
<!-- Created with Inkscape (http://www.inkscape.org/) -->

<svg
   xmlns:dc="http://purl.org/dc/elements/1.1/"
   xmlns:cc="http://creativecommons.org/ns#"
   xmlns:rdf="http://www.w3.org/1999/02/22-rdf-syntax-ns#"
   xmlns:svg="http://www.w3.org/2000/svg"
   xmlns="http://www.w3.org/2000/svg"
   xmlns:sodipodi="http://sodipodi.sourceforge.net/DTD/sodipodi-0.dtd"
   xmlns:inkscape="http://www.inkscape.org/namespaces/inkscape"
   width="120"
   height="220"
   id="svg2"
   version="1.1"
   inkscape:version="0.47pre4 r22446"
   sodipodi:docname="spaceship1.svg">
  <defs
     id="defs4">
    <inkscape:path-effect
       effect="skeletal"
       id="path-effect3784"
       is_visible="true"
       pattern="M 0,5 C 0,2.24 2.24,0 5,0 7.76,0 10,2.24 10,5 10,7.76 7.76,10 5,10 2.24,10 0,7.76 0,5 z"
       copytype="single_stretched"
       prop_scale="1"
       scale_y_rel="false"
       spacing="0"
       normal_offset="0"
       tang_offset="0"
       prop_units="false"
       vertical_pattern="false"
       fuse_tolerance="0" />
    <inkscape:path-effect
       effect="skeletal"
       id="path-effect3780"
       is_visible="true"
       pattern="m -38,719.36218 c 0,-2.76 2.24,-5 5,-5 2.76,0 5,2.24 5,5 0,2.76 -2.24,5 -5,5 -2.76,0 -5,-2.24 -5,-5 z"
       copytype="single_stretched"
       prop_scale="1"
       scale_y_rel="false"
       spacing="0"
       normal_offset="0"
       tang_offset="0"
       prop_units="false"
       vertical_pattern="false"
       fuse_tolerance="0" />
    <inkscape:perspective
       sodipodi:type="inkscape:persp3d"
       inkscape:vp_x="0 : 526.18109 : 1"
       inkscape:vp_y="0 : 1000 : 0"
       inkscape:vp_z="744.09448 : 526.18109 : 1"
       inkscape:persp3d-origin="372.04724 : 350.78739 : 1"
       id="perspective10" />
    <inkscape:perspective
       id="perspective2923"
       inkscape:persp3d-origin="0.5 : 0.33333333 : 1"
       inkscape:vp_z="1 : 0.5 : 1"
       inkscape:vp_y="0 : 1000 : 0"
       inkscape:vp_x="0 : 0.5 : 1"
       sodipodi:type="inkscape:persp3d" />
    <inkscape:perspective
       id="perspective3930"
       inkscape:persp3d-origin="0.5 : 0.33333333 : 1"
       inkscape:vp_z="1 : 0.5 : 1"
       inkscape:vp_y="0 : 1000 : 0"
       inkscape:vp_x="0 : 0.5 : 1"
       sodipodi:type="inkscape:persp3d" />
    <inkscape:perspective
       id="perspective4003"
       inkscape:persp3d-origin="0.5 : 0.33333333 : 1"
       inkscape:vp_z="1 : 0.5 : 1"
       inkscape:vp_y="0 : 1000 : 0"
       inkscape:vp_x="0 : 0.5 : 1"
       sodipodi:type="inkscape:persp3d" />
    <inkscape:perspective
       id="perspective4133"
       inkscape:persp3d-origin="0.5 : 0.33333333 : 1"
       inkscape:vp_z="1 : 0.5 : 1"
       inkscape:vp_y="0 : 1000 : 0"
       inkscape:vp_x="0 : 0.5 : 1"
       sodipodi:type="inkscape:persp3d" />
    <inkscape:perspective
       id="perspective4204"
       inkscape:persp3d-origin="0.5 : 0.33333333 : 1"
       inkscape:vp_z="1 : 0.5 : 1"
       inkscape:vp_y="0 : 1000 : 0"
       inkscape:vp_x="0 : 0.5 : 1"
       sodipodi:type="inkscape:persp3d" />
    <inkscape:perspective
       id="perspective2913"
       inkscape:persp3d-origin="0.5 : 0.33333333 : 1"
       inkscape:vp_z="1 : 0.5 : 1"
       inkscape:vp_y="0 : 1000 : 0"
       inkscape:vp_x="0 : 0.5 : 1"
       sodipodi:type="inkscape:persp3d" />
    <inkscape:perspective
       id="perspective3053"
       inkscape:persp3d-origin="0.5 : 0.33333333 : 1"
       inkscape:vp_z="1 : 0.5 : 1"
       inkscape:vp_y="0 : 1000 : 0"
       inkscape:vp_x="0 : 0.5 : 1"
       sodipodi:type="inkscape:persp3d" />
    <inkscape:perspective
       id="perspective2898"
       inkscape:persp3d-origin="0.5 : 0.33333333 : 1"
       inkscape:vp_z="1 : 0.5 : 1"
       inkscape:vp_y="0 : 1000 : 0"
       inkscape:vp_x="0 : 0.5 : 1"
       sodipodi:type="inkscape:persp3d" />
    <inkscape:perspective
       id="perspective3109"
       inkscape:persp3d-origin="0.5 : 0.33333333 : 1"
       inkscape:vp_z="1 : 0.5 : 1"
       inkscape:vp_y="0 : 1000 : 0"
       inkscape:vp_x="0 : 0.5 : 1"
       sodipodi:type="inkscape:persp3d" />
  </defs>
  <sodipodi:namedview
     id="base"
     pagecolor="#ffffff"
     bordercolor="#666666"
     borderopacity="1.0"
     inkscape:pageopacity="0.0"
     inkscape:pageshadow="2"
     inkscape:zoom="1"
     inkscape:cx="73.574468"
     inkscape:cy="105.41855"
     inkscape:document-units="px"
     inkscape:current-layer="layer1"
     showgrid="false"
     inkscape:window-width="1024"
     inkscape:window-height="551"
     inkscape:window-x="0"
     inkscape:window-y="25"
     inkscape:window-maximized="1" />
  <metadata
     id="metadata7">
    <rdf:RDF>
      <cc:Work
         rdf:about="">
        <dc:format>image/svg+xml</dc:format>
        <dc:type
           rdf:resource="http://purl.org/dc/dcmitype/StillImage" />
      </cc:Work>
    </rdf:RDF>
  </metadata>
  <g
     inkscape:label="Layer 1"
     inkscape:groupmode="layer"
     id="layer1"
     transform="translate(0,-832.36218)">
    <g
       id="g3211">
      <path
         inkscape:original-d="m 37,942.81046 c 0.574713,0.14367 1.149425,0.28735 0,0 z"
         inkscape:path-effect="#path-effect3780"
         id="path3778"
         d="m 37,942.81046 c 0.167098,-0.66843 0.34309,-1.2936 0.486364,-1.7242 0.143274,-0.4306 0.253551,-0.66551 0.31386,-0.65187 0.06031,0.0136 0.07065,0.2758 0.04077,0.73251 -0.02988,0.45671 -0.09969,1.10684 -0.175087,1.79783 -0.0015,0.004 -0.003,0.007 -0.0044,0.0112 -0.257922,0.64338 -0.501864,1.24926 -0.690253,1.66648 -0.188389,0.41721 -0.32095,0.64463 -0.380785,0.62966 -0.05983,-0.015 -0.04694,-0.27232 0.02884,-0.7177 0.07578,-0.44537 0.21418,-1.07766 0.380734,-1.74389 0.166554,-0.66623 0.341982,-1.28926 0.484718,-1.7179 0.142736,-0.42864 0.252501,-0.66177 0.312355,-0.64682 0.05985,0.015 0.06979,0.27801 0.03961,0.73477 -0.03018,0.45676 -0.100211,1.10613 -0.175623,1.79513 -4.36e-4,0.004 -8.73e-4,0.008 -0.0013,0.0119 -0.258431,0.64522 -0.502606,1.25177 -0.691076,1.66883 -0.188471,0.41707 -0.320958,0.64354 -0.380601,0.62718 -0.05964,-0.0163 -0.04644,-0.27553 0.02975,-0.72289 0.07619,-0.44737 0.215079,-1.08182 0.382177,-1.75025 z"
         style="fill:#000000;fill-rule:evenodd;stroke:none" />
      <g
         transform="translate(-184.55172,103.22414)"
         id="g4020">
        <path
           style="fill:#d45500;stroke:#000000;stroke-width:2;stroke-miterlimit:4;stroke-opacity:1;stroke-dasharray:none"
           d="m 235.65719,857.2309 c -5.15468,-1.08647 -10.13216,-2.60614 -11.06105,-3.37705 -1.4687,-1.21891 -1.59942,-3.62164 -1.0026,-18.42851 0.60898,-15.10833 2.82784,-34.89255 4.50742,-40.18992 0.5468,-1.72458 2.1597,-1.86153 18.79408,-1.59574 l 18.19595,0.29073 0.86603,3.19149 c 1.42964,5.26854 4.21348,40.89938 3.86495,49.46809 l -0.32454,7.97872 -6.91489,1.70857 c -11.71067,2.89354 -16.85673,3.0758 -26.92535,0.95362 l 0,0 z"
           id="shipBody" />
        <path
           style="fill:#008000;fill-opacity:0.93984112;stroke:#000000;stroke-width:2;stroke-miterlimit:4;stroke-opacity:1;stroke-dasharray:none"
           d="m 244.48826,894.22212 c -4.2024,-0.66031 -8.30588,-1.6713 -9.34259,-2.30176 -1.50562,-0.91562 -2.96927,-3.83924 -5.28678,-10.56029 -3.38846,-9.8269 -6.66033,-24.37913 -5.69774,-25.34172 0.34613,-0.34613 1.65904,0.0304 4.83607,1.387 l 4.36096,1.86212 8.04349,-0.30495 c 4.42393,-0.16772 9.30427,-0.48845 10.84522,-0.71273 1.54095,-0.22428 5.51724,-0.5933 8.83621,-0.82003 3.31896,-0.22673 6.77423,-0.53583 7.67837,-0.68688 l 1.64389,-0.27464 -0.27403,1.65891 c -1.72541,10.44502 -5.37775,23.19669 -9.194,32.09965 l -0.81901,1.91067 -5.12106,0.9443 c -5.68087,1.04752 -8.8862,1.39534 -10.509,1.14035 z"
           id="shipBottom" />
        <path
           style="fill:#ff0000;stroke:#000000;stroke-width:2;stroke-linecap:butt;stroke-linejoin:miter;stroke-miterlimit:4;stroke-opacity:1;stroke-dasharray:none"
           d="m 207.75862,910.1208 1.2931,-9.48276 3.44828,-6.46552 4.31034,-6.89655 5.17242,-6.03448 4.31034,-2.58621 1.72414,-1.2931 3.87931,12.06896 0.43104,1.72414"
           id="shipLtWing" />
        <path
           style="fill:#ff0000;stroke:#000000;stroke-width:2;stroke-linecap:butt;stroke-linejoin:miter;stroke-miterlimit:4;stroke-opacity:1;stroke-dasharray:none"
           d="m 262.06896,892.44839 3.01724,-12.5 9.05172,5.17241 5.17242,6.46552 2.15517,4.74138 3.44827,8.18965 2.58621,10.34483 -8.18965,-9.91379 -6.03449,-5.17242 -4.74138,-3.44827 -6.46551,-3.87931 z"
           id="shipRtWing" />
        <g
           id="shipCone">
          <g
             id="g3822">
            <path
               style="fill:#ffff00;fill-opacity:0.93984112;stroke:#000000;stroke-width:2;stroke-miterlimit:4;stroke-opacity:1;stroke-dasharray:none"
               d="m 238.05674,793.18103 c -6.10246,-0.52204 -8.42268,-0.87219 -8.56122,-1.29204 -0.10453,-0.31675 0.30123,-1.48054 0.90169,-2.5862 0.60047,-1.10566 1.46952,-3.46503 1.93123,-5.24305 1.03163,-3.97271 6.17659,-18.26477 6.64632,-18.46264 0.1876,-0.079 0.34109,-0.38714 0.34109,-0.68471 0,-1.96184 7.19772,-16.19748 8.18965,-16.19748 0.56862,0 3.86104,5.678 5.49864,9.48276 2.06526,4.7984 7.19953,18.13611 8.29619,21.55173 4.18191,13.02476 4.23136,13.3315 2.15345,13.35671 -1.19212,0.0144 -10.09252,0.40818 -13.57759,0.60062 -1.89655,0.10473 -7.2153,-0.13184 -11.81945,-0.5257 l 0,0 z"
               id="path3814" />
            <path
               style="fill:none;stroke:#000000;stroke-width:3;stroke-linecap:butt;stroke-linejoin:miter;stroke-miterlimit:4;stroke-opacity:1;stroke-dasharray:none"
               d="m 247.84482,749.34494 c -0.43103,-9.91379 -0.43103,-9.91379 -0.43103,-9.91379 l 0,0.43103"
               id="path3820" />
          </g>
        </g>
        <path
           style="fill:#800080;fill-opacity:0.93984112;stroke:#000000;stroke-width:3;stroke-miterlimit:4;stroke-opacity:1;stroke-dasharray:none"
           d="m 235.50249,906.17356 c 0,-1.06703 4.59976,-12.40994 5.03247,-12.40994 0.74921,0 3.52178,11.5796 2.85187,11.91094 -1.14852,0.56809 -7.88434,0.9944 -7.88434,0.499 z"
           id="shipLtJet" />
        <path
           style="fill:#800080;fill-opacity:0.93984112;stroke:#000000;stroke-width:2.81490302;stroke-miterlimit:4;stroke-opacity:1;stroke-dasharray:none"
           d="m 252.67238,906.11389 c -1.35952,-0.18394 -1.44042,-0.348 -1.11133,-2.25333 0.1952,-1.1302 0.82906,-3.53453 1.40857,-5.34296 l 1.05363,-3.28807 1.72233,4.60998 c 0.9473,2.53547 1.8799,5.05611 2.07247,5.60139 0.31242,0.88465 0.13311,0.98497 -1.66464,0.93143 -1.10813,-0.033 -2.67459,-0.1493 -3.48103,-0.25844 z"
           id="shipRtJet" />
      </g>
      <g
         transform="translate(-171.5,206.5)"
         id="shipFire1">
        <path
           id="path3024"
           d="m 213.07446,821.01373 0,-15 20,0 20,0 0,15 0,15 -20,0 -20,0 0,-15 z"
           style="fill:#fefefd" />
        <path
           id="path3022"
           d="m 242.07446,835.28173 c -3.61556,-0.66474 -4.70548,-1.87312 -5.45964,-6.05304 -2.27423,-12.60493 -1.42549,-20.52872 2.31719,-21.6331 1.32002,-0.38951 6.93368,-0.22942 11.39245,0.3249 0.4125,0.0513 0.75,1.64168 0.75,3.53422 0,1.89254 0.45,3.7191 1,4.05902 2.54527,1.57306 0.0351,18.5 -2.74348,18.5 -0.69109,0 -1.25652,0.45 -1.25652,1 0,1.01912 -1.54039,1.08792 -6,0.268 z m -21.75,-0.93028 c -0.6875,-0.27741 -1.25689,-1.25439 -1.26531,-2.17105 -0.0124,-1.35224 -0.18204,-1.40336 -0.89908,-0.27095 -0.50392,0.79583 -1.59909,1.12122 -2.54807,0.75706 -1.94705,-0.74715 -1.12949,-2.65278 1.13811,-2.65278 1.15603,0 1.37715,-0.5801 0.85766,-2.25 -2.33632,-7.51012 -1.67256,-19.75 1.07102,-19.75 0.83254,0 1.23559,-0.45 0.89567,-1 -0.87696,-1.41896 2.8546,-1.2454 4.3,0.2 0.93333,0.93333 1.46667,0.93333 2.4,0 1.58906,-1.58906 5.28176,-1.52936 6.6401,0.10734 1.42636,1.71865 1.17235,25.91644 -0.28266,26.92735 -1.17512,0.81645 -10.34907,0.89325 -12.30744,0.10303 z"
           style="fill:#fdfbf4" />
        <path
           id="path3020"
           d="m 243.63248,835.10761 c -0.30801,-0.49837 -1.3785,-0.69208 -2.37887,-0.43048 -2.77871,0.72665 -3.72489,-1.36607 -5.04726,-11.1634 -2.04821,-15.17496 -0.0992,-17.37091 13.86811,-15.625 0.55,0.0688 1,1.925 1,4.125 0,2.2 0.45,4 1,4 0.55445,0 1,2.64699 1,5.94098 0,3.26754 -0.45,6.2191 -1,6.55902 -0.55,0.33992 -1,1.39147 -1,2.33678 0,3.26484 -5.95123,6.66918 -7.44198,4.2571 z m -22.74632,-1.31683 c -4.37516,-3.39748 -6.23457,-22.53224 -2.45791,-25.2938 0.88832,-0.64955 1.32212,-1.47401 0.964,-1.83213 -0.35812,-0.35811 0.23388,-0.65112 1.31554,-0.65112 1.08167,0 2.41295,0.44628 2.95841,0.99174 0.65566,0.65566 2.0518,0.59162 4.11984,-0.18897 5.54377,-2.09255 6.17944,-0.58472 6.01373,14.26467 -0.11976,10.73113 -0.40636,12.99629 -1.68481,13.31597 -3.61444,0.9038 -9.7078,0.57475 -11.2288,-0.60636 z"
           style="fill:#fef4f3" />
        <path
           id="path3018"
           d="m 244.07446,834.94634 c 0,-0.58706 -0.83647,-0.8019 -1.85882,-0.47742 -2.45124,0.778 -4.46558,-1.75044 -4.35975,-5.47246 0.0461,-1.62139 -0.33587,-3.20735 -0.84881,-3.52437 -0.51294,-0.31702 -0.93262,-3.69984 -0.93262,-7.51738 0,-5.70987 0.37113,-7.31211 2.09245,-9.03343 1.38572,-1.38572 2.82118,-1.89697 4.25,-1.51366 1.18665,0.31834 3.62005,0.58495 5.40755,0.59246 3.11458,0.0131 3.25,0.17786 3.25,3.95463 0,2.16754 0.45,4.2191 1,4.55902 2.55736,1.58053 0.26642,14.37644 -3.19334,17.8362 -1.86559,1.86559 -4.80666,2.23052 -4.80666,0.59641 z m -23.25021,-1.32568 c -1.57289,-1.57289 -3.54882,-8.77472 -3.87044,-14.10693 -0.37645,-6.24113 0.18337,-9.26629 2.13011,-11.51091 1.80021,-2.07566 2.26525,-2.18003 4.46591,-1.00227 1.95295,1.04519 2.76106,1.06185 3.94255,0.0813 1.957,-1.62417 5.3134,-0.49003 6.12591,2.06997 0.35537,1.11968 0.33438,3.68417 -0.0466,5.69885 -0.38103,2.01468 -0.67234,7.15056 -0.64735,11.41306 0.025,4.2625 -0.0435,7.77018 -0.1522,7.79485 -0.1087,0.0247 -2.49663,0.28103 -5.30652,0.56969 -3.79428,0.38978 -5.50321,0.13051 -6.64132,-1.00761 z"
           style="fill:#fdf4eb" />
        <path
           id="path3016"
           d="m 244.07446,834.94634 c 0,-0.58706 -0.83647,-0.8019 -1.85882,-0.47742 -3.38388,1.074 -4.23225,-1.44367 -5.76062,-17.09567 -0.53162,-5.44427 -0.34995,-6.39014 1.60237,-8.34245 1.47838,-1.47838 2.91097,-2.01178 4.35952,-1.62318 1.18665,0.31834 3.62005,0.58495 5.40755,0.59246 3.11458,0.0131 3.25,0.17786 3.25,3.95463 0,2.16754 0.45,4.2191 1,4.55902 0.55,0.33992 1,2.81492 1,5.5 0,2.68508 -0.45,5.16008 -1,5.5 -0.55,0.33992 -1.01497,1.37898 -1.03327,2.30902 -0.0711,3.61539 -6.96673,8.68668 -6.96673,5.12359 z m -22.64106,-0.66363 c -1.91418,-1.29 -4.35894,-11.2719 -4.35894,-17.79747 0,-4.73983 0.46465,-6.70124 2.00946,-8.48242 1.77348,-2.04484 2.28725,-2.16825 4.375,-1.05093 1.76257,0.94331 2.88873,0.986 4.4181,0.16751 1.1289,-0.60417 2.72536,-0.84032 3.54768,-0.52477 1.72841,0.66326 2.91023,3.18863 2.10325,4.49435 -0.30414,0.49212 -0.57989,5.85151 -0.61276,11.90975 -0.0329,6.05825 -0.12298,11.03518 -0.20025,11.05985 -1.91464,0.61129 -10.45528,0.78097 -11.28154,0.22413 z"
           style="fill:#fde9e8" />
        <path
           id="path3014"
           d="m 244.57446,835.01373 c -0.33992,-0.55 -1.47564,-1 -2.52383,-1 -1.97232,0 -4.2255,-3.08944 -3.83717,-5.26131 0.12181,-0.68128 -0.36745,-3.1064 -1.08723,-5.38916 -1.49453,-4.73979 -0.72255,-12.54794 1.41606,-14.32284 0.76462,-0.63457 3.72517,-1.00206 6.70099,-0.83176 5.29729,0.30313 5.33322,0.32732 5.65248,3.80507 0.17671,1.925 0.73921,3.9275 1.25,4.45 1.2472,1.2758 1.18916,10.271 -0.0713,11.05 -0.55,0.33992 -1.01497,1.37898 -1.03327,2.30902 -0.0389,1.97564 -3.31937,6.19098 -4.81801,6.19098 -0.56688,0 -1.3088,-0.45 -1.64872,-1 z m -22.84924,-1.35207 c -1.97934,-1.56449 -4.65076,-11.41412 -4.65076,-17.14754 0,-6.75939 3.72786,-12.41603 6.42573,-9.75039 0.41749,0.4125 2.62999,0.75 4.91667,0.75 l 4.1576,0 0,12.33739 c 0,6.78557 -0.225,12.68061 -0.5,13.10011 -0.8974,1.36892 -8.82744,1.91328 -10.34924,0.71043 z"
           style="fill:#fce7d8" />
        <path
           id="path3012"
           d="m 244.57446,835.01373 c -0.33992,-0.55 -1.46492,-1 -2.5,-1 -2.41107,0 -3.39583,-1.62821 -3.62887,-6 -0.10262,-1.925 -0.64182,-5.23675 -1.19822,-7.35943 -1.16711,-4.45251 -0.49978,-10.1244 1.37416,-11.67963 0.70982,-0.5891 3.68961,-0.93381 6.62175,-0.76601 5.29729,0.30313 5.33322,0.32732 5.65248,3.80507 0.17671,1.925 0.73921,3.9275 1.25,4.45 1.62476,1.66202 0.89746,9.87212 -1.15604,13.05 -1.06621,1.65 -2.2108,3.7875 -2.54354,4.75 -0.66038,1.91026 -2.88796,2.34176 -3.87172,0.75 z m -22.70147,-1.09287 c -2.10735,-1.17933 -5.26736,-16.59451 -4.37589,-21.34647 0.37824,-2.01617 1.33529,-3.91428 2.12679,-4.218 0.7915,-0.30373 1.14285,-1.03155 0.78078,-1.61738 -0.44012,-0.71214 -0.0239,-0.78737 1.25575,-0.22698 1.05272,0.46099 3.93904,0.87497 6.41404,0.91994 l 4.5,0.0818 0,12.33679 c 0,6.78523 -0.225,12.68028 -0.5,13.1001 -0.78115,1.19253 -8.49355,1.92604 -10.20147,0.97024 z"
           style="fill:#fcd8d7" />
        <path
           id="path3010"
           d="m 242.57446,833.95903 c -3.20603,-2.03958 -4.16764,-5.04031 -5.16057,-16.10371 -0.72246,-8.04973 0.49024,-9.84159 6.66057,-9.84159 5.32878,0 7,1.49636 7,6.26759 0,1.31949 0.3116,2.71067 0.69244,3.09151 2.0309,2.03091 0.53343,11.77013 -2.17427,14.1409 -0.62816,0.55 -1.4376,1.7875 -1.79876,2.75 -0.80647,2.1493 -1.41806,2.11359 -5.21941,-0.3047 z m -21.40349,-1.32901 c -2.16359,-2.60697 -4.21239,-16.47222 -3.06414,-20.73651 0.5746,-2.13388 1.50393,-3.87978 2.06519,-3.87978 0.56126,0 0.74236,-0.45 0.40244,-1 -0.33992,-0.55 -0.16803,-1 0.38197,-1 0.55,0 1.30476,0.49312 1.67725,1.09581 0.42872,0.69369 2.27301,0.85652 5.02583,0.44371 4.00954,-0.60127 4.39578,-0.4641 4.95383,1.75938 0.33289,1.32633 0.17976,5.51416 -0.34028,9.3063 -0.52004,3.79214 -0.71908,8.40715 -0.4423,10.25559 0.33321,2.22535 0.0371,3.65603 -0.87654,4.23468 -2.15612,1.36563 -8.51049,1.05439 -9.78325,-0.47918 z"
           style="fill:#fcd5ca" />
        <path
           id="path3008"
           d="m 243.68265,834.51799 c -1.0405,-0.78767 -2.33516,-1.57991 -2.87702,-1.76054 -0.54187,-0.18062 -1.41387,-2.55935 -1.93778,-5.28606 -3.0569,-15.90966 -1.92574,-19.54051 5.94911,-19.09566 4.63102,0.2616 4.78408,0.37335 5.7575,4.20337 0.55,2.16405 1.25034,4.38463 1.5563,4.93463 0.93611,1.68273 1.17286,7.75954 0.28091,7.21035 -0.46047,-0.28352 -0.94017,0.89999 -1.06601,2.63002 -0.12585,1.73002 -0.71743,3.30837 -1.31463,3.50744 -0.5972,0.19907 -1.4956,1.43975 -1.99644,2.75706 -1.04556,2.75002 -1.7225,2.88992 -4.35194,0.89939 z m -23.21506,-4.10579 c -0.82765,-1.98085 -1.76416,-7.27639 -2.08112,-11.76788 -0.69109,-9.79271 0.0645,-10.82627 8.1771,-11.18559 6.36395,-0.28187 6.33231,-0.34421 5.34251,10.52779 -0.37691,4.13996 -0.4504,8.95097 -0.16332,10.69111 0.6047,3.66532 -1.47859,5.3361 -6.65359,5.3361 -2.63353,0 -3.35007,-0.55839 -4.62158,-3.60153 z"
           style="fill:#fcc9c7" />
        <path
           id="path3006"
           d="m 242.82446,833.6902 c -1.61209,-1.31992 -2.76466,-3.27052 -2.78544,-4.71403 -0.0195,-1.35434 -0.67854,-3.58744 -1.46456,-4.96244 -1.78022,-3.11416 -1.88229,-9.68857 -0.20184,-13 1.05742,-2.08371 1.98633,-2.5 5.57849,-2.5 2.3704,0 4.64398,0.225 5.0524,0.5 0.77148,0.51946 4.08252,12.93329 4.05564,15.20552 -0.0109,0.92215 -0.29413,0.86304 -0.98469,-0.20552 -0.72513,-1.12206 -0.97323,-0.59421 -0.98469,2.09501 -0.01,2.31035 -0.73,4.2418 -2.01531,5.40499 -1.1,0.99549 -2,2.41523 -2,3.15499 0,1.87693 -1.06079,1.6327 -4.25,-0.97852 z m -21.53193,-1.30802 c -1.46348,-2.79289 -3.21807,-11.89557 -3.21807,-16.69516 0,-6.48241 1.72588,-8.19989 8.13495,-8.09535 l 5.36505,0.0875 -0.22431,12.30825 c -0.12337,6.76954 -0.4237,12.50765 -0.66741,12.75135 -0.24371,0.24371 -2.23591,0.68357 -4.42712,0.97748 -3.21272,0.43091 -4.17356,0.17264 -4.96309,-1.33408 z"
           style="fill:#fcc5ba" />
        <path
           id="path3004"
           d="m 242.72748,833.17345 c -1.45916,-1.52303 -2.65302,-3.77287 -2.65302,-4.99962 0,-1.22676 -0.71048,-3.3148 -1.57885,-4.6401 -1.21102,-1.84824 -1.41802,-3.69689 -0.88852,-7.93489 0.8518,-6.81759 1.87668,-7.75237 7.45543,-6.80001 4.33601,0.74022 4.33744,0.74189 6.17057,7.22764 2.11406,7.4797 2.20996,8.3331 0.84137,7.48726 -0.5944,-0.36736 -1,0.81122 -1,2.9058 0,2.50038 -0.58088,3.83471 -2,4.5942 -1.1,0.5887 -2,1.70298 -2,2.47617 0,2.59556 -1.67384,2.47371 -4.34698,-0.31645 z m -21.75005,-1.90972 c -0.57613,-1.5125 -1.56141,-6.27033 -2.18949,-10.57295 -0.9585,-6.56609 -0.90464,-8.24579 0.33523,-10.45476 1.29461,-2.30651 2.12301,-2.6374 6.70205,-2.67705 3.65715,-0.0317 5.39105,0.38694 5.77872,1.39515 0.30463,0.79221 0.24376,6.34107 -0.13525,12.3308 -0.65213,10.306 -0.81885,10.93975 -3.10677,11.80962 -4.21264,1.60164 -6.27144,1.09121 -7.38449,-1.83081 z"
           style="fill:#fcc7ab" />
        <path
           id="path3002"
           d="m 242.72748,833.17345 c -1.45916,-1.52303 -2.65302,-3.78662 -2.65302,-5.03018 0,-1.24356 -0.50847,-3.21112 -1.12994,-4.37234 -1.56807,-2.92996 -1.34949,-12.70635 0.32145,-14.37728 0.98111,-0.98111 2.56078,-1.1472 5.74345,-0.60388 l 4.39011,0.74945 1.83356,6.48725 c 2.11406,7.4797 2.20996,8.3331 0.84137,7.48726 -0.5944,-0.36736 -1,0.81122 -1,2.9058 0,2.50038 -0.58088,3.83471 -2,4.5942 -1.1,0.5887 -2,1.70298 -2,2.47617 0,2.59556 -1.67384,2.47371 -4.34698,-0.31645 z m -21.16934,-0.40972 c -1.00952,-2.78225 -3.48368,-16.06654 -3.48368,-18.70459 0,-1.55311 0.81514,-3.8305 1.81143,-5.06086 1.59417,-1.96872 2.06504,-2.07864 3.92591,-0.91651 1.63188,1.01913 2.68278,1.06157 4.6045,0.18598 3.50792,-1.59832 3.87749,-0.0223 3.05239,13.01717 -0.65213,10.306 -0.81885,10.93975 -3.10677,11.80962 -3.38037,1.28521 -6.26837,1.14479 -6.80378,-0.33081 z"
           style="fill:#fcbab6" />
        <path
           id="path3000"
           d="m 242.73813,833.03845 c -4.45265,-4.50136 -6.26388,-22.81295 -2.40301,-24.2945 0.70285,-0.26971 3.01297,-0.20685 5.1336,0.1397 3.80086,0.62112 3.88065,0.72606 5.61127,7.38008 1.5237,5.8584 1.55892,6.75 0.26662,6.75 -1.07585,0 -1.32041,0.67158 -0.88145,2.42054 0.75665,3.01474 -0.16163,5.57946 -1.99769,5.57946 -0.76616,0 -1.39301,0.9 -1.39301,2 0,2.47359 -1.90323,2.48443 -4.33633,0.0247 z m -20.53807,-0.37338 c -1.73818,-2.09438 -4.37739,-16.49565 -3.69229,-20.14755 0.79299,-4.22701 2.99091,-6.22653 5.00602,-4.55414 0.79163,0.657 2.92913,1.0496 4.75,0.87244 l 3.31067,-0.32209 -0.34477,11 c -0.20547,6.55563 -0.81152,11.45488 -1.5,12.12585 -1.93738,1.8881 -6.31852,2.48479 -7.52963,1.02549 z"
           style="fill:#fbb5a7" />
        <path
           id="path2998"
           d="m 242.74941,832.85535 c -1.00378,-1.09545 -2.07693,-3.54387 -2.38478,-5.44095 -0.30786,-1.89708 -0.94908,-3.68987 -1.42495,-3.98397 -0.98296,-0.6075 -1.18061,-10.43123 -0.25823,-12.83491 0.43906,-1.14417 1.9607,-1.58179 5.5,-1.58179 2.69115,0 4.89301,0.11393 4.89301,0.25318 0,0.13925 0.87979,3.32964 1.95508,7.08976 1.63533,5.71845 1.7122,6.74336 0.47002,6.26669 -1.16731,-0.44794 -1.43336,0.19801 -1.24339,3.01886 0.1645,2.4426 -0.30498,3.98848 -1.47001,4.84037 -0.94143,0.68839 -1.7117,1.98952 -1.7117,2.89138 0,2.18799 -2.07266,1.93946 -4.32505,-0.51862 z m -20.55781,-0.20048 c -1.4948,-1.80112 -3.11714,-10.71274 -3.11714,-17.12264 0,-3.84785 0.49654,-5.65789 1.90072,-6.92866 1.33134,-1.20484 2.1105,-1.38071 2.60099,-0.58707 0.38515,0.62319 2.34233,0.99695 4.34928,0.83059 l 3.64901,-0.30248 -0.34477,10.98456 c -0.20539,6.54387 -0.81179,11.4397 -1.5,12.11041 -1.94466,1.8952 -6.31888,2.48436 -7.53809,1.01529 z"
           style="fill:#fac58e" />
        <path
           id="path2996"
           d="m 242.83096,832.93689 c -2.94316,-3.22449 -5.60815,-16.3938 -4.34,-21.4465 0.5574,-2.22086 1.13605,-2.47666 5.60255,-2.47666 2.73952,0 4.98095,0.11393 4.98095,0.25318 0,0.13925 0.87979,3.32964 1.95508,7.08976 1.63533,5.71845 1.7122,6.74336 0.47002,6.26669 -1.16731,-0.44794 -1.43336,0.19801 -1.24339,3.01886 0.1645,2.4426 -0.30498,3.98848 -1.47001,4.84037 -0.94143,0.68839 -1.7117,1.98952 -1.7117,2.89138 0,2.1614 -2.06598,1.94861 -4.2435,-0.43708 z m -20.63936,-0.28202 c -1.47885,-1.7819 -3.11714,-10.68981 -3.11714,-16.94889 0,-6.60802 1.99523,-9.09493 5.73865,-7.15281 1.76179,0.91402 3.1716,1.04377 4.37036,0.40222 1.04167,-0.55749 1.99888,-0.57611 2.32696,-0.0453 0.95894,1.55161 -0.68277,22.06632 -1.83817,22.9696 -2.18264,1.70635 -6.3495,2.13812 -7.48066,0.77515 z"
           style="fill:#fbaaa7" />
        <path
           id="path2994"
           d="m 243.68088,832.9841 c -2.46917,-2.49159 -5.53233,-11.44188 -5.57377,-16.28611 -0.0515,-6.01599 1.33352,-7.68426 6.37947,-7.68426 l 4.34174,0 1.57906,6.25 c 0.93854,3.71477 1.19128,6.38521 0.62307,6.58333 -0.52579,0.18334 -0.95599,2.08 -0.95599,4.21482 0,2.90633 -0.52195,4.16082 -2.07756,4.99336 -1.18986,0.63679 -1.84419,1.72003 -1.53138,2.53518 0.75202,1.95974 -0.51507,1.68385 -2.78464,-0.60632 z m -22.50743,-2.65246 c -0.67213,-1.47516 -1.48641,-6.42813 -1.80952,-11.00662 -0.50391,-7.14044 -0.33132,-8.60756 1.21332,-10.31438 1.398,-1.54476 2.11011,-1.73314 3.18364,-0.84218 0.76057,0.63121 2.7832,1.10784 4.49474,1.05918 l 3.1119,-0.0885 -0.67703,11.14712 c -0.71175,11.71885 -1.14547,12.68517 -5.70553,12.71214 -1.84671,0.0109 -2.94001,-0.75403 -3.81152,-2.66678 z"
           style="fill:#fbb49a" />
        <path
           id="path2992"
           d="m 243.68088,832.9841 c -2.46917,-2.49159 -5.53233,-11.44188 -5.57377,-16.28611 -0.052,-6.07612 1.23838,-7.55975 6.40123,-7.35994 l 4.44502,0.17203 1.51654,6.00183 c 0.90536,3.58303 1.13127,6.13616 0.56055,6.33515 -0.52579,0.18334 -0.95599,1.98759 -0.95599,4.00946 0,2.64232 -0.58597,4.04206 -2.08368,4.9774 -1.18202,0.73818 -1.84469,1.92409 -1.53139,2.74055 0.75759,1.97424 -0.50224,1.70656 -2.77851,-0.59037 z m -22.4942,-3.07829 c -0.59588,-1.70936 -1.38003,-6.66446 -1.74254,-11.01134 -0.56917,-6.82476 -0.41058,-8.17807 1.16197,-9.91572 1.22799,-1.3569 2.04728,-1.64633 2.51555,-0.88865 0.38194,0.61799 2.39249,1.12363 4.46789,1.12363 l 3.77345,0 -0.67477,11.10983 c -0.71119,11.70969 -1.1381,12.64814 -5.76595,12.67486 -2.07448,0.012 -2.88816,-0.66165 -3.7356,-3.09261 z"
           style="fill:#facb7b" />
        <path
           id="path2990"
           d="m 243.68088,832.9841 c -2.46917,-2.49159 -5.53233,-11.44188 -5.57377,-16.28611 -0.052,-6.07612 1.23838,-7.55975 6.40123,-7.35994 l 4.44502,0.17203 1.51654,6.00183 c 0.90536,3.58303 1.13127,6.13616 0.56055,6.33515 -0.52579,0.18334 -0.95599,1.98759 -0.95599,4.00946 0,2.64232 -0.58597,4.04206 -2.08368,4.9774 -1.18202,0.73818 -1.84469,1.92409 -1.53139,2.74055 0.75759,1.97424 -0.50224,1.70656 -2.77851,-0.59037 z m -22.4942,-3.07829 c -0.59588,-1.70936 -1.38003,-6.66446 -1.74254,-11.01134 -0.56214,-6.74048 -0.40015,-8.18959 1.10089,-9.84822 1.56882,-1.73353 1.92387,-1.78093 3.26843,-0.43637 1.04108,1.04107 2.4483,1.30199 4.54198,0.84214 l 3.03355,-0.66628 -0.68776,11.32382 c -0.72485,11.93451 -1.14074,12.86208 -5.77895,12.88886 -2.07448,0.012 -2.88816,-0.66165 -3.7356,-3.09261 z"
           style="fill:#fba597" />
        <path
           id="path2988"
           d="m 221.18668,829.90581 c -1.93432,-5.5488 -2.47791,-18.15014 -0.87433,-20.26869 1.20398,-1.59064 1.76544,-1.69198 3.68442,-0.66497 1.24518,0.6664 3.41269,0.92333 4.81668,0.57095 l 2.55271,-0.64069 -0.71434,11.28897 c -0.75006,11.85366 -1.16479,12.78068 -5.72954,12.80704 -2.07448,0.012 -2.88816,-0.66165 -3.7356,-3.09261 z m 22.21513,2.33139 c -3.55171,-2.25917 -6.28879,-19.66203 -3.5268,-22.42402 0.48123,-0.48123 2.70741,-0.58195 4.94705,-0.22382 3.78933,0.60594 4.14652,0.9468 5.14421,4.90901 0.58968,2.34182 1.38173,5.06461 1.76011,6.05065 0.44754,1.16629 0.30896,1.55857 -0.39657,1.12252 -1.47691,-0.91278 -2.08921,1.1788 -1.49071,5.09219 0.39191,2.56254 0.14544,3.25 -1.16518,3.25 -0.91423,0 -1.92125,0.675 -2.23783,1.5 -0.64031,1.66861 -1.30082,1.8261 -3.03428,0.72347 z"
           style="fill:#fba78a" />
        <path
           id="path2986"
           d="m 221.30293,829.26373 c -1.57713,-5.43533 -2.5527,-14.82202 -1.8369,-17.67401 0.57224,-2.27998 1.02934,-2.44619 6.23753,-2.26813 l 5.62004,0.19214 -0.69305,10.98331 c -0.72599,11.50515 -1.16409,12.47489 -5.6478,12.50138 -2.13974,0.0126 -2.78147,-0.63866 -3.67982,-3.73469 z m 22.11621,2.98418 c -0.63543,-0.40435 -2.10648,-3.55865 -3.26901,-7.00955 -2.51688,-7.47126 -1.88001,-15.78981 1.1975,-15.6413 7.7497,0.37399 7.4344,0.19825 8.59009,4.78792 0.60538,2.40418 1.41028,5.178 1.78866,6.16404 0.45172,1.17717 0.31093,1.55979 -0.40999,1.11423 -1.36162,-0.84153 -2.51515,2.47491 -1.64738,4.73629 0.41694,1.08651 -0.29,2.52937 -2.02884,4.14088 -3.03005,2.80815 -2.70074,2.67493 -4.22103,1.70749 z"
           style="fill:#fb9996" />
        <path
           id="path2984"
           d="m 221.62624,829.7919 c -1.76556,-4.22558 -2.98504,-17.79554 -1.75988,-19.58342 0.65198,-0.95144 2.30216,-1.1185 6.08784,-0.61632 l 5.19341,0.68894 -0.65991,10.11631 c -0.36295,5.56398 -0.94191,10.42198 -1.28657,10.79556 -0.34467,0.37358 -1.8665,0.98545 -3.38186,1.35971 -2.45245,0.6057 -2.91317,0.30235 -4.19303,-2.76078 z m 21.62804,1.93428 c -2.58899,-3.13045 -5.1869,-12.32814 -4.60314,-16.29701 0.86081,-5.85235 1.39869,-6.36256 6.04992,-5.7387 3.90839,0.52423 4.13392,0.74924 5.13477,5.12293 0.64943,2.83802 0.70299,5.47897 0.14109,6.95688 -0.49815,1.31023 -0.65676,3.37421 -0.35247,4.58662 0.70357,2.80324 -4.71508,7.37051 -6.37017,5.36928 z"
           style="fill:#fa9787" />
        <path
           id="path2982"
           d="m 222.27764,831.35152 c -0.52864,-1.01079 -1.5183,-5.81903 -2.19925,-10.68499 -1.52422,-10.89173 -0.88679,-12.00968 6.28694,-11.02641 l 4.70142,0.6444 -0.62383,10.11461 c -0.34312,5.56303 -0.90388,10.42026 -1.24615,10.79384 -0.34227,0.37358 -1.82284,0.97558 -3.29015,1.33778 -2.01233,0.49674 -2.90399,0.207 -3.62898,-1.17923 z m 20.13064,-1.08779 c -0.33188,-0.9625 -1.39356,-3.6085 -2.3593,-5.88 -1.89406,-4.45498 -1.65955,-12.55659 0.41327,-14.27687 0.62221,-0.51639 2.67297,-0.62358 4.55724,-0.23821 4.18109,0.85513 5.13433,3.53546 4.65376,13.08549 -0.25668,5.10092 -0.69352,6.63149 -1.96444,6.88291 -0.89889,0.17783 -1.63435,0.74033 -1.63435,1.25 0,1.65938 -3.04599,0.97533 -3.66618,-0.82332 z"
           style="fill:#faa96f" />
        <path
           id="path2980"
           d="m 222.27764,831.35152 c -0.52864,-1.01079 -1.51335,-5.78416 -2.18825,-10.6075 -1.41648,-10.12316 -0.61986,-12.39505 3.91087,-11.1534 1.41581,0.388 3.58864,0.64681 4.82851,0.57513 2.2392,-0.12946 2.25007,-0.0617 1.62231,10.10883 -0.3476,5.63153 -0.91204,10.54481 -1.25431,10.91839 -0.34227,0.37358 -1.82284,0.97558 -3.29015,1.33778 -2.01233,0.49674 -2.90399,0.207 -3.62898,-1.17923 z m 20.10725,-1.08779 c -0.34474,-0.9625 -1.38391,-3.775 -2.30926,-6.25 -2.75945,-7.3806 -0.64783,-16.8259 3.20502,-14.33609 0.7116,0.45985 2.15925,0.83609 3.21701,0.83609 2.55245,0 3.59591,4.08776 3.17559,12.44041 -0.25668,5.10092 -0.69352,6.63149 -1.96444,6.88291 -0.89889,0.17783 -1.63435,0.74033 -1.63435,1.25 0,1.6564 -3.04476,0.97696 -3.68957,-0.82332 z"
           style="fill:#fa947a" />
        <path
           id="path2978"
           d="m 222.66421,832.15894 c -0.34565,-0.55926 -1.25123,-5.2066 -2.01241,-10.32743 -1.61694,-10.87789 -0.9927,-13.23232 3.21267,-12.11721 1.49049,0.39522 3.72162,0.67194 4.95807,0.61492 2.22878,-0.10279 2.24271,-0.0166 1.62231,10.04042 -0.34418,5.57925 -0.90581,10.44975 -1.24808,10.82333 -1.17568,1.28323 -5.90434,1.98246 -6.53256,0.96597 z m 19.89554,-1.39521 c -2.76058,-7.63527 -3.48529,-10.70299 -3.48529,-14.75328 0,-4.50991 1.80223,-7.86115 3.3794,-6.28399 0.38246,0.38246 1.88374,0.71606 3.33618,0.74133 2.06745,0.036 2.81953,0.69727 3.46406,3.04594 1.25136,4.56001 -0.12178,14.69032 -2.27042,16.75 -2.14711,2.05821 -3.79329,2.24426 -4.42393,0.5 z"
           style="fill:#fa8884" />
        <path
           id="path2976"
           d="m 222.50927,830.90824 c -0.37578,-0.60801 -1.25786,-4.99551 -1.96017,-9.75 -1.47709,-9.99943 -0.80155,-12.51565 3.09742,-11.53707 1.37063,0.34401 3.26513,0.68556 4.21,0.75901 0.94487,0.0734 1.99019,0.58355 2.32295,1.13355 0.69333,1.14599 -0.70968,18.05133 -1.62042,19.52494 -0.82187,1.32981 -5.20572,1.2353 -6.04978,-0.13043 z m 18.63704,-4.43202 c -3.37032,-9.00798 -2.33409,-18.74357 1.7617,-16.55157 0.96226,0.51498 2.58779,0.85821 3.61229,0.76271 2.58412,-0.24087 3.68815,4.3302 2.91039,12.05008 -0.50552,5.01758 -1.07846,6.51949 -2.95645,7.75 -1.28118,0.83946 -2.53791,1.52629 -2.79275,1.52629 -0.25483,0 -1.39566,-2.49188 -2.53518,-5.53751 z"
           style="fill:#f9af50" />
        <path
           id="path2974"
           d="m 222.14477,829.69866 c -0.4841,-1.27328 -1.18483,-4.98578 -1.55716,-8.25 -0.37234,-3.26421 -0.86723,-6.63354 -1.09975,-7.48739 -0.23253,-0.85385 0.17932,-2.37587 0.91522,-3.38227 1.27959,-1.74995 1.45462,-1.75341 4.00969,-0.0793 2.04558,1.34032 2.99469,1.48251 4.04991,0.60676 1.0452,-0.86744 1.4888,-0.83562 1.83589,0.13171 0.56835,1.58395 -0.91478,18.466 -1.73952,19.80046 -1.20642,1.95202 -5.504,1.05422 -6.41428,-1.34001 z m 19.00154,-3.22244 c -3.37032,-9.00798 -2.33409,-18.74357 1.7617,-16.55157 0.96226,0.51498 2.58779,0.85821 3.61229,0.76271 2.58412,-0.24087 3.68815,4.3302 2.91039,12.05008 -0.50552,5.01758 -1.07846,6.51949 -2.95645,7.75 -1.28118,0.83946 -2.53791,1.52629 -2.79275,1.52629 -0.25483,0 -1.39566,-2.49188 -2.53518,-5.53751 z"
           style="fill:#fa8678" />
        <path
           id="path2972"
           d="m 222.13455,829.67178 c -0.51748,-1.36109 -1.24958,-6.27925 -1.62688,-10.92925 -0.75781,-9.33961 -0.0511,-10.83501 3.89764,-8.24767 1.31304,0.86033 3.12575,1.28089 4.02824,0.93457 1.41077,-0.54137 1.63051,0.19177 1.56679,5.22731 -0.0408,3.22135 -0.37827,7.88199 -0.75,10.35699 -0.59575,3.9665 -1.00185,4.53751 -3.4254,4.81638 -2.15645,0.24813 -2.95245,-0.21741 -3.69039,-2.15833 z m 21.21124,1.06386 c -2.61671,-3.44941 -4.3414,-10.713 -3.69705,-15.5703 l 0.66804,-5.03598 3.89064,0.15515 c 3.48771,0.13908 3.98352,0.49155 4.78753,3.40341 0.49328,1.78655 0.66045,5.85322 0.37148,9.03704 -0.40707,4.485 -1.03985,6.17659 -2.80956,7.51068 -1.75742,1.32483 -2.4979,1.44013 -3.21108,0.5 z"
           style="fill:#fa7974" />
        <path
           id="path2970"
           d="m 223.91904,831.34262 c -2.03067,-0.53865 -2.56772,-2.56289 -3.43265,-12.93826 -0.749,-8.98473 -0.007,-10.48197 3.91892,-7.9095 1.31304,0.86033 3.09178,1.29392 3.95275,0.96354 1.37808,-0.52882 1.49697,0.57546 0.99348,9.22731 -0.31462,5.40631 -1.068,10.15856 -1.67451,10.56271 -1.16693,0.77757 -1.18043,0.77791 -3.75799,0.0942 z m 17.21699,-5.67718 c -1.71683,-4.23001 -2.02942,-6.41337 -1.49498,-10.44218 l 0.67573,-5.0939 3.89064,0.15515 c 3.50313,0.13969 3.98164,0.48472 4.80431,3.46421 1.26724,4.58956 0.12422,14.46961 -1.84909,15.98321 -2.76378,2.11992 -3.79932,1.42118 -6.02661,-4.06649 z"
           style="fill:#f9836a" />
        <path
           id="path2968"
           d="m 223.64739,830.4438 c -1.85627,-1.85626 -2.25977,-3.57781 -3.06787,-13.08917 -0.68033,-8.00745 0.0825,-9.31245 3.95897,-6.77251 1.38629,0.90833 3.16123,1.40565 3.94431,1.10516 1.19438,-0.45833 1.33299,1.01428 0.86029,9.14005 -0.63404,10.89904 -2.03975,13.27242 -5.6957,9.61647 z m 17.53808,-4.86292 c -1.53151,-4.09332 -1.88195,-6.70559 -1.42132,-10.59489 0.60375,-5.09769 0.64846,-5.15463 3.58584,-4.56715 1.63596,0.32719 3.31348,0.59489 3.72783,0.59489 1.25296,0 2.66967,7.32604 1.9338,10 -0.3784,1.375 -0.4645,3.5355 -0.19134,4.80111 0.49734,2.30428 -1.8953,5.09883 -4.42397,5.16709 -0.64798,0.0175 -2.09286,-2.41298 -3.21084,-5.40105 z"
           style="fill:#f97967" />
        <path
           id="path2966"
           d="m 223.11077,829.55749 c -1.55452,-1.8731 -3.30507,-17.675 -2.09239,-18.88768 0.47651,-0.47651 2.47171,-0.27364 4.49143,0.4567 l 3.63405,1.31409 -0.2847,9.03657 c -0.26128,8.29308 -0.45645,9.0611 -2.37221,9.33482 -1.14812,0.16404 -2.66741,-0.40049 -3.37618,-1.2545 z m 18.41559,-4.0566 c -2.08259,-4.70911 -2.34897,-6.354 -1.66736,-10.29583 0.79337,-4.58811 0.88601,-4.68516 4.21056,-4.41078 1.86963,0.15431 3.64809,0.52919 3.95212,0.83307 0.30403,0.30389 0.58197,4.11797 0.61765,8.47574 0.0593,7.24893 -0.1351,8.05425 -2.28476,9.46276 -2.31265,1.51531 -2.38865,1.45133 -4.82821,-4.06496 z"
           style="fill:#f88c4e" />
        <path
           id="path2964"
           d="m 223.11077,829.55749 c -1.62629,-1.95957 -3.30118,-17.67889 -2.02017,-18.9599 0.57281,-0.57281 1.89956,-0.48767 3.45673,0.22183 1.81036,0.82485 2.53147,1.9375 2.54244,3.92287 0.0121,2.18024 0.22786,2.45146 1.0117,1.27144 0.69439,-1.04537 0.91707,0.92469 0.73469,6.5 -0.23718,7.25032 -0.45732,8.02795 -2.34921,8.29826 -1.14812,0.16404 -2.66741,-0.40049 -3.37618,-1.2545 z m 18.41559,-4.0566 c -2.07784,-4.69837 -2.34887,-6.36299 -1.67637,-10.29583 0.79068,-4.62392 0.85194,-4.68641 4.26334,-4.34864 1.90362,0.18848 3.68613,0.56336 3.96113,0.83307 0.275,0.26971 0.52919,4.05583 0.56487,8.4136 0.0593,7.24893 -0.1351,8.05425 -2.28476,9.46276 -2.31265,1.51531 -2.38865,1.45133 -4.82821,-4.06496 z"
           style="fill:#f8a534" />
        <path
           id="path2962"
           d="m 223.11077,829.55749 c -1.31835,-1.58852 -3.34677,-17.23242 -2.42729,-18.72016 1.14947,-1.85987 3.52557,-0.60922 5.09488,2.68167 1.16822,2.44977 1.91966,3.12729 2.49552,2.25 0.45778,-0.69739 0.70767,2.30017 0.56228,6.74473 -0.23718,7.25032 -0.45732,8.02795 -2.34921,8.29826 -1.14812,0.16404 -2.66741,-0.40049 -3.37618,-1.2545 z m 18.41559,-4.0566 c -2.07784,-4.69837 -2.34887,-6.36299 -1.67637,-10.29583 0.79068,-4.62392 0.85194,-4.68641 4.26334,-4.34864 1.90362,0.18848 3.68613,0.56336 3.96113,0.83307 0.275,0.26971 0.52919,4.05583 0.56487,8.4136 0.0593,7.24893 -0.1351,8.05425 -2.28476,9.46276 -2.31265,1.51531 -2.38865,1.45133 -4.82821,-4.06496 z"
           style="fill:#f97659" />
        <path
           id="path2960"
           d="m 225.07446,829.63674 c 0,-0.83799 -0.70014,-1.91545 -1.55587,-2.39434 -1.10154,-0.61645 -1.56676,-2.45604 -1.59314,-6.29969 -0.0205,-2.98594 -0.49569,-5.98575 -1.056,-6.66625 -0.56031,-0.68049 -0.75752,-1.91799 -0.43825,-2.75 1.07196,-2.79347 3.45238,-1.54832 6.10157,3.1916 2.12264,3.79781 2.57269,5.77112 2.3355,10.24028 -0.23013,4.33611 -0.6731,5.60814 -2.04381,5.869 -1.04668,0.19919 -1.75,-0.27931 -1.75,-1.1906 z m 16.96387,-2.97179 c -2.15555,-4.87296 -2.22449,-5.36902 -1.68889,-12.15122 0.29872,-3.78258 0.47649,-3.98174 3.27046,-3.66399 4.42198,0.5029 4.9771,1.61488 4.71073,9.43636 -0.19008,5.58139 -0.67966,7.59556 -2.22083,9.13674 -1.96934,1.96933 -1.98513,1.95864 -4.07147,-2.75789 z"
           style="fill:#f89936" />
        <path
           id="path2958"
           d="m 225.07446,829.63674 c 0,-0.83799 -0.70014,-1.91545 -1.55587,-2.39434 -1.10154,-0.61645 -1.56676,-2.45604 -1.59314,-6.29969 -0.0205,-2.98594 -0.49569,-5.98575 -1.056,-6.66625 -0.56031,-0.68049 -0.75752,-1.91799 -0.43825,-2.75 0.93035,-2.42444 3.58582,-1.74814 4.85806,1.23727 0.64456,1.5125 1.78388,3.48691 2.53182,4.38759 2.0861,2.51209 1.30446,13.2381 -0.99662,13.67602 -1.04668,0.19919 -1.75,-0.27931 -1.75,-1.1906 z m 16.9435,-3.01782 c -2.14558,-4.85044 -2.22191,-5.41701 -1.631,-12.10519 0.25271,-2.86028 0.75717,-3.88974 1.77045,-3.61301 0.77938,0.21284 2.27824,0.47228 3.33081,0.57652 2.70391,0.2678 3.64683,3.66342 2.92774,10.5433 -0.40811,3.9046 -1.25402,6.50903 -2.47214,7.61142 -1.76446,1.59681 -1.94952,1.45478 -3.92586,-3.01304 z m 4.0565,-8.54617 c 0,-1.06754 -0.45,-2.2191 -1,-2.55902 -0.56716,-0.35052 -1,0.48962 -1,1.94098 0,1.40746 0.45,2.55902 1,2.55902 0.55,0 1,-0.87344 1,-1.94098 z"
           style="fill:#f88838" />
        <path
           id="path2956"
           d="m 225.07446,829.63674 c 0,-0.83799 -0.70014,-1.91545 -1.55587,-2.39434 -1.10154,-0.61645 -1.56676,-2.45604 -1.59314,-6.29969 -0.0205,-2.98594 -0.49569,-5.98575 -1.056,-6.66625 -1.31597,-1.59824 -0.29183,-4.26273 1.63844,-4.26273 1.76019,0 3.56657,3.00556 3.56657,5.93426 0,1.13616 0.5625,1.95324 1.25,1.81574 0.89722,-0.17944 1.25,1.58059 1.25,6.23631 0,5.38237 -0.29784,6.54366 -1.75,6.82332 -1.04842,0.20191 -1.75,-0.27381 -1.75,-1.18662 z m 16.9435,-3.01782 c -1.14075,-2.57888 -2.05392,-5.45754 -2.02925,-6.39703 0.0442,-1.68363 0.77833,-9.28228 0.98141,-10.15816 0.0574,-0.2475 0.64434,0.09 1.30434,0.75 0.66,0.66 2.18252,1.2 3.38337,1.2 2.79309,0 3.52113,2.70677 2.73949,10.1851 -0.39145,3.74518 -1.24893,6.343 -2.4535,7.43313 -1.76446,1.59681 -1.94952,1.45478 -3.92586,-3.01304 z m 4.0565,-7.98275 c 0,-1.30765 -0.675,-2.93775 -1.5,-3.62244 -1.28638,-1.0676 -1.5,-0.72901 -1.5,2.37756 0,2.55328 0.44272,3.62244 1.5,3.62244 0.91273,0 1.5,-0.93084 1.5,-2.37756 z"
           style="fill:#f96857" />
        <path
           id="path2954"
           d="m 224.43035,828.2706 c -2.66558,-3.61935 -4.17153,-18.25687 -1.87832,-18.25687 1.73553,0 3.52243,3.04033 3.52243,5.99328 0,1.16861 0.45,1.84664 1,1.50672 0.58985,-0.36455 1.07513,0.94423 1.18318,3.19098 0.45481,9.45699 -0.72168,11.78271 -3.82729,7.56589 z m 17.31261,-3.28329 c -1.95628,-4.43272 -2.12466,-5.73743 -1.23521,-9.57109 0.71036,-3.06172 1.44872,-4.27801 2.38006,-3.92062 0.74262,0.28497 2.16094,0.51813 3.15181,0.51813 2.38322,0 3.09675,3.11426 2.35015,10.25737 -0.44715,4.27809 -1.11132,6.09827 -2.49554,6.83908 -1.64554,0.88067 -2.17523,0.3546 -4.15127,-4.12287 z m 4.3315,-6.35114 c 0,-1.30765 -0.675,-2.93775 -1.5,-3.62244 -1.28638,-1.0676 -1.5,-0.72901 -1.5,2.37756 0,2.55328 0.44272,3.62244 1.5,3.62244 0.91273,0 1.5,-0.93084 1.5,-2.37756 z"
           style="fill:#f97448" />
        <path
           id="path2952"
           d="m 224.43035,828.2706 c -2.17337,-2.95101 -4.19764,-18.25687 -2.41456,-18.25687 1.73198,0 4.05867,3.14613 4.05867,5.4881 0,1.28988 0.46287,2.49952 1.0286,2.6881 1.39017,0.46339 1.74167,10.4523 0.41453,11.78012 -0.7427,0.74309 -1.6604,0.23792 -3.08724,-1.69945 z m 17.63934,-2.45738 c -2.18068,-4.8049 -2.57573,-8.79949 -0.87023,-8.79949 0.71778,0 0.90684,-1.09078 0.52231,-3.01345 -0.57326,-2.86632 -0.46951,-2.98163 2.125,-2.36174 4.2138,1.00677 4.22769,1.03602 4.22769,8.89902 0,6.41491 -0.27118,7.55093 -2.02673,8.49048 -1.80497,0.96599 -2.24025,0.61422 -3.97804,-3.21482 z m 4.00477,-7.17705 c 0,-1.30765 -0.675,-2.93775 -1.5,-3.62244 -1.28638,-1.0676 -1.5,-0.72901 -1.5,2.37756 0,2.55328 0.44272,3.62244 1.5,3.62244 0.91273,0 1.5,-0.93084 1.5,-2.37756 z"
           style="fill:#f89426" />
        <path
           id="path2950"
           d="m 224.43035,828.2706 c -1.42701,-1.9376 -2.22355,-5.05998 -2.68038,-10.50687 -0.3575,-4.2625 -0.29574,-7.75 0.13724,-7.75 1.38039,0 3.18725,2.3405 3.18725,4.12857 0,0.95072 0.69195,2.42052 1.53766,3.26624 1.80711,1.8071 2.46952,10.99666 0.90547,12.56151 -0.7427,0.74309 -1.6604,0.23792 -3.08724,-1.69945 z m 17.63934,-2.45738 c -2.18068,-4.8049 -2.57573,-8.79949 -0.87023,-8.79949 0.72319,0 0.90496,-1.1002 0.50893,-3.08036 -0.44279,-2.21392 -0.26699,-2.96256 0.625,-2.66159 0.8199,0.27666 1.12566,2.00073 0.901,5.08036 -0.27261,3.73691 -0.0247,4.66159 1.25,4.66159 1.22091,0 1.59007,-1.05845 1.59007,-4.55902 0,-2.7847 0.38919,-4.31848 1,-3.94098 0.55,0.33992 1,3.95064 1,8.02383 0,6.41491 -0.27118,7.55093 -2.02673,8.49048 -1.80497,0.96599 -2.24025,0.61422 -3.97804,-3.21482 z"
           style="fill:#f8862a" />
        <path
           id="path2948"
           d="m 224.43035,828.2706 c -2.45647,-3.33541 -4.24951,-18.71542 -2.10001,-18.01314 0.68426,0.22357 1.72913,1.87324 2.32193,3.66594 0.5928,1.7927 1.61953,3.59426 2.28162,4.00346 1.52494,0.94246 1.99455,10.63162 0.5837,12.04319 -0.7427,0.74309 -1.6604,0.23792 -3.08724,-1.69945 z m 17.63934,-2.45738 c -2.18068,-4.8049 -2.57573,-8.79949 -0.87023,-8.79949 0.71667,0 0.90722,-1.08889 0.525,-3 -0.33846,-1.69231 -0.175,-3 0.375,-3 0.53625,0 0.975,2.25 0.975,5 0,3.74919 0.37048,5 1.48095,5 0.81452,0 1.697,-1.0125 1.96106,-2.25 0.26407,-1.2375 0.67044,-3.15 0.90305,-4.25 0.23262,-1.1 0.47514,1.47167 0.53894,5.71482 0.10212,6.79156 -0.12655,7.84462 -1.91073,8.79949 -1.80497,0.96599 -2.24025,0.61422 -3.97804,-3.21482 z"
           style="fill:#f87638" />
        <path
           id="path2946"
           d="m 224.43035,828.2706 c -2.4567,-3.33573 -4.24905,-18.71274 -2.10001,-18.01662 0.68426,0.22166 1.84937,2.28342 2.58911,4.58169 0.73974,2.29827 1.75224,3.92698 2.25,3.61935 1.53952,-0.95147 1.67063,10.19309 0.13795,11.72577 -0.46567,0.46567 -1.76034,-0.39392 -2.87705,-1.91019 z m 17.63934,-2.45738 c -2.06208,-4.54357 -2.59586,-8.79949 -1.10364,-8.79949 0.49038,0 1.17395,1.125 1.51905,2.5 0.67619,2.69414 2.46533,3.22403 4.38936,1.3 0.93333,-0.93333 1.2,-0.27448 1.2,2.96482 0,3.15967 -0.48914,4.42659 -2.02673,5.24949 -1.80497,0.96599 -2.24025,0.61422 -3.97804,-3.21482 z"
           style="fill:#f86647" />
        <path
           id="path2944"
           d="m 225.53957,828.73073 c -0.35508,-1.41476 -1.27715,-2.81463 -2.04903,-3.11083 -0.96655,-0.3709 -1.35554,-2.02774 -1.24959,-5.32236 0.0846,-2.63109 -0.19572,-5.79631 -0.62296,-7.03381 -0.59332,-1.71857 -0.39946,-2.25 0.82079,-2.25 0.92147,0 1.86759,1.16381 2.23559,2.75 0.35092,1.5125 1.31914,3.83771 2.15162,5.16714 1.83737,2.93418 2.15539,9.57594 0.53605,11.19528 -0.90249,0.90249 -1.32739,0.57716 -1.82247,-1.39542 z m 17.11275,-1.8764 c -2.21367,-5.29808 -2.8383,-8.5616 -1.76556,-9.2246 0.53589,-0.3312 1.25593,0.51971 1.60008,1.89091 0.65349,2.60373 2.45562,3.22509 4.22421,1.4565 0.71546,-0.71546 1.07635,0.0209 1.16492,2.37676 0.0842,2.23955 -0.54396,4.02176 -1.82663,5.18256 -1.8947,1.71468 -1.9994,1.66283 -3.39702,-1.68213 z"
           style="fill:#f85b47" />
        <path
           id="path2942"
           d="m 224.83638,826.76373 c -0.80746,-1.2375 -1.70473,-4.5 -1.99393,-7.25 -0.2892,-2.75 -0.85346,-5.7875 -1.2539,-6.75 -0.50617,-1.21664 -0.26667,-1.75 0.7858,-1.75 0.99121,0 2.23649,2.30222 3.60698,6.66841 3.1106,9.90994 2.50902,14.68163 -1.14495,9.08159 z m 17.16288,-2.42544 c -1.10227,-2.57149 -1.70889,-5.38399 -1.34804,-6.25 0.50685,-1.2164 0.87603,-0.94902 1.623,1.17544 1.03757,2.95098 2.66105,3.48919 4.61899,1.53125 0.95833,-0.95833 1.08942,-0.47756 0.61347,2.25 -1.33435,7.64681 -2.65142,7.9561 -5.50742,1.29331 z"
           style="fill:#f86639" />
        <path
           id="path2940"
           d="m 224.68947,826.54891 c -0.9401,-1.43477 -1.61501,-4.54435 -1.61501,-7.44098 0,-2.73689 -0.45,-5.25428 -1,-5.5942 -1.49608,-0.92463 -1.20529,-2.5 0.46146,-2.5 0.88442,0 1.88498,1.67803 2.53414,4.25 0.58998,2.3375 1.50732,5.28367 2.03854,6.54705 1.2092,2.87578 1.25778,7.20295 0.0809,7.20295 -0.48675,0 -1.61175,-1.10917 -2.5,-2.46482 z m 17.87076,-0.91499 c -1.85558,-4.44103 -1.92346,-6.60102 -0.13038,-4.14884 0.85716,1.17224 1.98303,1.61276 3.06282,1.19841 1.42177,-0.54558 1.65509,-0.12558 1.39461,2.51051 -0.4403,4.4558 -2.5591,4.67122 -4.32705,0.43992 z"
           style="fill:#f7781d" />
        <path
           id="path2938"
           d="m 224.68947,826.54891 c -0.9401,-1.43477 -1.61501,-4.54435 -1.61501,-7.44098 0,-2.73689 -0.45,-5.25428 -1,-5.5942 -1.51136,-0.93407 -1.19817,-2.5 0.5,-2.5 1.04762,0 1.5,1.05556 1.5,3.5 0,1.925 0.3596,3.5 0.79911,3.5 1.02848,0 3.20089,5.98672 3.20089,8.821 0,2.87849 -1.38847,2.76125 -3.38499,-0.28582 z m 17.87076,-0.91499 c -1.85558,-4.44103 -1.92346,-6.60102 -0.13038,-4.14884 0.85716,1.17224 1.98303,1.61276 3.06282,1.19841 1.42177,-0.54558 1.65509,-0.12558 1.39461,2.51051 -0.4403,4.4558 -2.5591,4.67122 -4.32705,0.43992 z"
           style="fill:#f85737" />
        <path
           id="path2936"
           d="m 224.89116,825.23793 c -1.761,-3.89609 -2.71911,-12.65513 -1.5159,-13.85834 0.38456,-0.38455 0.6992,0.95081 0.6992,2.96747 0,2.01667 0.45,3.66667 1,3.66667 0.55,0 1,1.09844 1,2.44098 0,1.34254 0.45,2.7191 1,3.05902 1.15423,0.71335 1.37341,5.51284 0.25,5.4742 -0.4125,-0.0142 -1.50749,-1.70169 -2.4333,-3.75 z m 18.34208,1.70574 c -0.76367,-2.0394 -0.56828,-2.51979 1.21566,-2.98899 2.66619,-0.70124 3.43951,1.67367 1.25599,3.85719 -1.41566,1.41566 -1.64686,1.33445 -2.47165,-0.8682 z"
           style="fill:#f76727" />
        <path
           id="path2934"
           d="m 224.82446,825.16032 c -1.95208,-4.24082 -2.20733,-6.14659 -0.82324,-6.14659 1.19752,0 4.07324,5.75648 4.07324,8.15364 0,2.94344 -1.35701,2.10541 -3.25,-2.00705 z m 18.40878,1.78335 c -0.76367,-2.0394 -0.56828,-2.51979 1.21566,-2.98899 2.66619,-0.70124 3.43951,1.67367 1.25599,3.85719 -1.41566,1.41566 -1.64686,1.33445 -2.47165,-0.8682 z"
           style="fill:#f84b34" />
        <path
           id="path2932"
           d="m 224.82446,824.64094 c -2.00235,-4.2279 -2.1827,-5.62721 -0.72525,-5.62721 1.33504,0 3.14946,4.81045 2.77063,7.34559 -0.23097,1.54565 -0.67698,1.17095 -2.04538,-1.71838 z m 18.73475,2.34812 c -0.40754,-0.65942 -0.12083,-1.58421 0.63713,-2.05509 1.66304,-1.03315 2.55953,0.79835 1.10349,2.25439 -0.66618,0.66618 -1.24681,0.59969 -1.74062,-0.1993 z"
           style="fill:#f75529" />
        <path
           id="path2930"
           d="m 226.15341,826.59706 c -0.0434,-1.05416 0.19292,-1.64479 0.52522,-1.3125 0.33229,0.33229 0.36781,1.1948 0.0789,1.91667 -0.31923,0.79773 -0.55619,0.56078 -0.60417,-0.60417 z m 17.4058,0.392 c -0.40754,-0.65942 -0.12083,-1.58421 0.63713,-2.05509 1.66304,-1.03315 2.55953,0.79835 1.10349,2.25439 -0.66618,0.66618 -1.24681,0.59969 -1.74062,-0.1993 z"
           style="fill:#f8472b" />
        <path
           id="path2928"
           d="m 244.07446,826.57275 c 0,-0.85746 0.45,-1.55902 1,-1.55902 0.55,0 1,0.42344 1,0.94098 0,0.51754 -0.45,1.2191 -1,1.55902 -0.55,0.33992 -1,-0.0835 -1,-0.94098 z"
           style="fill:#f83e29" />
      </g>
      <g
         transform="translate(-109.5,132.5)"
         id="shipFire2">
        <path
           id="path3209"
           d="m 151.57446,902.9436 0,-15 20,0 20,0 0,15 0,15 -20,0 -20,0 0,-15 z"
           style="fill:#fefefe" />
        <path
           id="path3207"
           d="m 162.96188,917.12575 c 0.278,-0.44981 -0.42671,-1.46231 -1.56602,-2.25 -6.19532,-4.28325 -6.07193,-4.01046 -6.49663,-14.36377 -0.35012,-8.53525 -0.17217,-9.96019 1.38679,-11.10498 2.07435,-1.52325 11.97013,-1.78746 12.8626,-0.34341 0.37888,0.61304 1.12963,0.5408 2.01487,-0.19388 0.96521,-0.80105 1.80587,-0.85078 2.66097,-0.15738 0.83468,0.67683 3.35475,0.69027 7.58466,0.0404 3.48406,-0.53525 6.57872,-0.72911 6.87702,-0.43081 0.92329,0.92328 2.41041,8.80392 2.9664,15.71969 0.39587,4.92418 0.12314,7.38568 -1.07506,9.70274 -1.54819,2.99387 -1.78393,3.08356 -6.60426,2.51267 -3.41971,-0.40502 -4.99876,-0.23214 -4.99876,0.54726 0,0.62661 -0.66643,1.13929 -1.48095,1.13929 -1.80373,0 -2.9556,-4.04919 -2.00441,-7.04614 0.92344,-2.90948 -1.57556,-2.16889 -3.13355,0.92865 -1.68131,3.34273 -5.03701,6.11749 -7.39829,6.11749 -1.15546,0 -1.87338,-0.36803 -1.59538,-0.81785 z"
           style="fill:#fef4f3" />
        <path
           id="path3205"
           d="m 163.03741,917.00355 c 0.58394,-0.94485 0.10077,-1.48471 -4.41546,-4.93349 -2.1257,-1.62328 -2.54917,-2.98908 -3.17795,-10.24965 -1.00798,-11.63923 -0.10006,-13.34965 7.14549,-13.46141 3.01673,-0.0465 5.93497,0.23133 6.48497,0.61747 1.17869,0.82751 10.45665,0.51702 15.61683,-0.52263 l 3.61683,-0.7287 1.63317,7.23189 c 2.02661,8.97413 2.06262,13.7145 0.13914,18.31804 -1.48926,3.5643 -1.51001,3.57382 -6.5,2.98283 -3.4256,-0.40571 -5.00597,-0.23321 -5.00597,0.54641 0,1.55847 -2.97681,1.45192 -3.09274,-0.11071 -0.051,-0.6875 -0.0116,-3.25029 0.0875,-5.69508 0.15304,-3.77373 -0.038,-4.26392 -1.26504,-3.24559 -0.79492,0.65972 -2.72404,3.22251 -4.28694,5.69508 -2.05711,3.25444 -3.49307,4.49559 -5.20123,4.49559 -1.29778,0 -2.09816,-0.42302 -1.77862,-0.94005 z"
           style="fill:#fef3ea" />
        <path
           id="path3203"
           d="m 162.87261,917.31212 c 0.98153,-0.98154 -1.19733,-4.36852 -2.81028,-4.36852 -0.79297,0 -2.1115,-1.02214 -2.93006,-2.27143 -1.9288,-2.94372 -2.45436,-19.23181 -0.67788,-21.00894 1.42194,-1.42246 12.12007,-1.80281 12.12007,-0.4309 0,0.51045 1.09742,0.65265 2.43871,0.31601 1.3413,-0.33665 2.72239,-0.15309 3.0691,0.4079 0.34671,0.56099 1.075,0.7452 1.61842,0.40934 0.54342,-0.33585 1.97483,-0.7608 3.1809,-0.94432 1.20608,-0.18353 3.76787,-0.62898 5.69287,-0.98989 l 3.5,-0.65619 1.7642,7.33421 c 1.93817,8.05746 2.29955,15.83421 0.7358,15.83421 -0.55,0 -1,1.09844 -1,2.44098 0,3.27429 -1.11158,3.76871 -6.00239,2.66982 -3.26275,-0.73309 -4.24406,-0.63213 -4.67105,0.48057 -0.29729,0.77475 -1.16739,1.40863 -1.93355,1.40863 -1.02551,0 -1.39301,-1.48331 -1.39301,-5.62245 0,-5.01744 -0.17049,-5.48095 -1.58439,-4.30751 -0.87142,0.72321 -2.91804,3.25331 -4.54804,5.62244 -1.91866,2.78868 -3.71068,4.30752 -5.08228,4.30752 -1.16524,0 -1.83446,-0.28417 -1.48714,-0.63148 z"
           style="fill:#fde8e7" />
        <path
           id="path3201"
           d="m 163.57446,916.49449 c 0,-0.79701 -1.5347,-2.61968 -3.41045,-4.05039 -3.34087,-2.5482 -3.42503,-2.79562 -4.12458,-12.12631 -0.49318,-6.57819 -0.36781,-9.87135 0.40526,-10.64442 1.58052,-1.58052 11.34374,-1.64763 12.90871,-0.0887 0.70341,0.70069 1.94091,1.01996 2.75,0.70948 0.80908,-0.31047 1.47106,-0.0398 1.47106,0.60151 0,0.69406 0.50594,0.84125 1.25,0.36365 1.48765,-0.95489 9.60478,-3.20883 11.78189,-3.27155 0.89112,-0.0257 1.61132,0.91554 1.72177,2.25013 0.10444,1.26185 0.87759,4.24343 1.71811,6.62573 1.71574,4.86292 2.06153,14.08001 0.52823,14.08001 -0.55,0 -1,0.8449 -1,1.87755 0,3.07992 -2.2104,4.20929 -6.07124,3.10202 -4.50601,-1.29231 -4.92876,-1.24767 -4.92876,0.52043 0,0.825 -0.6681,1.5 -1.48467,1.5 -1.21761,0 -1.37186,-1.07927 -0.85754,-6 0.37978,-3.63355 0.24528,-6 -0.34102,-6 -1.19371,0 -4.13666,3.29088 -7.37163,8.24317 -2.48087,3.79786 -4.94514,4.94785 -4.94514,2.30772 z"
           style="fill:#fde3db" />
        <path
           id="path3199"
           d="m 163.57446,916.49449 c 0,-0.79701 -1.50777,-2.59914 -3.35059,-4.00473 -3.26039,-2.48682 -3.36819,-2.80345 -4.00402,-11.76116 -0.53554,-7.5447 -0.37779,-9.48118 0.87439,-10.73336 2.05974,-2.05974 11.1787,-2.27977 11.94295,-0.28817 0.32015,0.83429 1.22302,1.18736 2.13824,0.83616 1.0586,-0.40623 1.76151,0.0705 2.11886,1.43701 0.52424,2.00471 0.56124,2.00709 1.88206,0.12136 0.74101,-1.05795 2.59623,-2.18478 4.1227,-2.50408 9.28393,-1.94193 8.81294,-1.97116 9.02241,0.55983 0.1081,1.30613 0.88425,4.32394 1.72477,6.70624 1.71574,4.86292 2.06153,14.08001 0.52823,14.08001 -0.55,0 -1,0.81 -1,1.8 0,3.01516 -1.86706,4.09852 -5.34458,3.10118 -4.40199,-1.26248 -5.65542,-1.12976 -5.65542,0.59882 0,0.825 -0.63233,1.5 -1.40517,1.5 -1.11122,0 -1.29136,-1.25517 -0.86111,-6 0.34639,-3.82005 0.16791,-6 -0.49124,-6 -1.32415,0 -7.06306,6.5121 -8.48052,9.62309 -1.18645,2.60397 -3.76196,3.23916 -3.76196,0.9278 z"
           style="fill:#fddbda" />
        <path
           id="path3197"
           d="m 163.57446,915.96928 c 0,-1.18015 -1.20093,-2.59534 -2.98551,-3.51819 -3.28277,-1.69758 -3.6304,-2.72129 -4.44155,-13.07944 -0.72235,-9.22415 0.366,-10.86052 7.31911,-11.00464 4.13062,-0.0856 5.18438,0.24206 5.66684,1.76214 0.32597,1.02703 1.32706,1.74292 2.22465,1.59089 1.2408,-0.21018 1.71047,0.67881 1.95939,3.70872 0.18006,2.19184 0.74523,4.403 1.25592,4.91369 0.57138,0.57138 0.70687,-0.43744 0.35224,-2.62274 -0.81981,-5.05189 0.66273,-6.92355 6.70993,-8.47114 5.54336,-1.41865 6.86584,-0.905 6.93872,2.69503 0.0167,0.825 0.67885,3.3 1.47142,5.5 2.01176,5.58413 1.86493,10.42872 -0.46204,15.24498 -1.9362,4.00748 -2.08038,4.09285 -5.25,3.10855 -5.15345,-1.60037 -6.28791,-1.52497 -5.96528,0.39647 0.16161,0.9625 -0.30972,1.75 -1.0474,1.75 -1.02652,0 -1.24411,-1.52514 -0.92734,-6.5 0.22764,-3.575 0.024,-6.47871 -0.4526,-6.45269 -1.17866,0.0644 -9.3665,10.39262 -9.3665,11.81503 0,0.62571 -0.675,1.13766 -1.5,1.13766 -0.82683,0 -1.5,-0.88604 -1.5,-1.97432 z"
           style="fill:#fdd4d3" />
        <path
           id="path3195"
           d="m 164.18103,916.77117 c 0.43565,-0.70489 -0.81465,-2.4647 -3.13534,-4.41305 -3.69469,-3.10187 -3.89194,-3.57553 -4.60717,-11.06331 -1.03988,-10.88663 -0.0358,-12.78139 6.84886,-12.92409 4.71285,-0.0977 5.2995,0.13606 6.23046,2.48252 0.56525,1.4247 1.47635,3.26536 2.02466,4.09036 0.54832,0.825 1.67354,3.075 2.50049,5 l 1.50355,3.5 -0.50478,-5 c -0.27763,-2.75 -0.0824,-5.64324 0.43386,-6.42941 0.79202,-1.20613 11.1128,-4.63899 11.53951,-3.83823 0.0784,0.1472 1.15252,3.4997 2.38686,7.44999 2.43693,7.79905 2.66335,14.72 0.45384,13.87213 -0.93046,-0.35706 -1.14026,0.15958 -0.72945,1.79636 0.92292,3.67722 -1.48563,4.94645 -6.83196,3.60023 -4.34704,-1.0946 -4.4947,-1.26023 -4.98261,-5.58895 -0.52198,-4.63098 -1.67993,-6.79044 -2.46354,-4.59426 -0.24881,0.69732 -1.15193,1.9674 -2.00693,2.8224 -2.2206,2.2206 -6.26688,8.32478 -6.26688,9.45415 0,0.52557 -0.70156,0.95559 -1.55902,0.95559 -0.93755,0 -1.27017,-0.46736 -0.83441,-1.17243 z m 11.39343,0.73145 c 0,-0.24254 0.45,-0.7191 1,-1.05902 0.55,-0.33992 1,-0.14148 1,0.44098 0,0.58246 -0.45,1.05902 -1,1.05902 -0.55,0 -1,-0.19844 -1,-0.44098 z"
           style="fill:#fdd5cb" />
        <path
           id="path3193"
           d="m 164.1735,916.5461 c 0.31707,-0.82628 -0.88226,-2.47948 -2.93415,-4.04453 -4.03071,-3.07437 -4.57157,-4.70635 -4.77073,-14.39518 -0.1804,-8.77645 0.68336,-10.02859 6.65854,-9.65248 3.86629,0.24336 4.82621,0.76895 6.84943,3.75033 1.29414,1.90703 2.89298,5.10353 3.55298,7.10334 1.63364,4.94999 2.44547,4.57523 1.71016,-0.78944 -0.75035,-5.47444 0.9777,-7.75927 7.18209,-9.49615 2.39104,-0.66935 4.43478,-1.07332 4.54164,-0.8977 0.10686,0.17562 1.20419,3.55137 2.43853,7.50166 2.4293,7.77463 2.66263,14.71972 0.46621,13.87687 -0.87564,-0.33601 -1.29374,0.44385 -1.29374,2.41315 0,3.83982 -0.992,4.28955 -6.31903,2.86479 -4.29403,-1.14848 -4.47943,-1.35674 -4.95371,-5.56454 -0.4947,-4.38896 -1.66671,-6.69837 -2.38712,-4.70377 -0.21232,0.58787 -2.17572,2.98811 -4.36309,5.33386 -2.18738,2.34575 -3.97705,5.12726 -3.97705,6.18114 0,1.05388 -0.66088,1.91615 -1.46862,1.91615 -0.84672,0 -1.24152,-0.59178 -0.93234,-1.3975 z m 11.40096,0.95652 c 0,-0.24254 0.45,-0.7191 1,-1.05902 0.55,-0.33992 1,-0.14148 1,0.44098 0,0.58246 -0.45,1.05902 -1,1.05902 -0.55,0 -1,-0.19844 -1,-0.44098 z"
           style="fill:#fcc9c7" />
        <path
           id="path3191"
           d="m 164.07446,916.9436 c 0.33992,-0.55 1.04148,-1 1.55902,-1 0.51754,0 0.94098,0.45 0.94098,1 0,0.55 -0.70156,1 -1.55902,1 -0.85746,0 -1.2809,-0.45 -0.94098,-1 z m -2.5,-4.5612 c -3.83318,-2.6976 -4.78539,-5.9 -4.92588,-16.56636 -0.088,-6.68229 0.84499,-7.68093 6.86223,-7.34496 3.62102,0.20218 4.59555,0.6781 5.30265,2.58955 0.47646,1.28801 1.42448,3.0261 2.10671,3.86241 1.94334,2.38227 3.85888,8.87634 3.02775,10.26473 -1.36298,2.27684 -7.78605,9.75683 -8.33522,9.70679 -0.29603,-0.027 -2.11324,-1.15744 -4.03824,-2.51216 z m 18.36759,1.39317 c -1.5582,-0.75458 -2.29225,-2.28472 -2.72598,-5.68232 -1.81186,-14.19307 -1.85608,-15.1863 -0.73618,-16.5357 0.6374,-0.76802 2.38193,-1.62827 3.87674,-1.91168 1.4948,-0.28341 3.73033,-0.83485 4.96783,-1.22541 1.79339,-0.56601 2.25,-0.32428 2.25,1.19117 0,1.04571 0.9243,4.53109 2.05401,7.7453 2.39531,6.81511 2.29483,11.2274 -0.2461,10.80613 -1.40828,-0.23348 -1.59599,0.31162 -1.11915,3.25 0.56258,3.46682 0.51191,3.52932 -2.80792,3.46286 -1.85946,-0.0372 -4.34043,-0.53238 -5.51325,-1.10035 z"
           style="fill:#fcbec0" />
        <path
           id="path3189"
           d="m 164.07446,916.9436 c 0.33992,-0.55 1.06803,-1 1.61803,-1 0.55,0 0.72189,0.45 0.38197,1 -0.33992,0.55 -1.06803,1 -1.61803,1 -0.55,0 -0.72189,-0.45 -0.38197,-1 z m 15.867,-3.4555 c -2.13975,-1.49873 -3.49156,-7.8263 -3.74817,-17.5445 l -0.11883,-4.5 5,-1.66983 c 6.5578,-2.19008 6.5,-2.19412 6.5,0.45449 0,1.25656 0.9,4.84532 2,7.97502 2.56186,7.28896 2.57769,9.74032 0.0629,9.74032 -1.65538,0 -1.85452,0.50906 -1.36916,3.5 0.55605,3.4265 0.4964,3.5 -2.84036,3.5 -1.87459,0 -4.34344,-0.65497 -5.48635,-1.4555 z m -18.60545,-1.38463 c -3.43887,-2.08117 -3.72417,-2.86336 -4.4426,-12.17971 -0.78522,-10.18248 0.13117,-11.85397 6.28649,-11.46653 l 4.65321,0.29289 2.84267,6.34674 c 3.65068,8.15076 3.60396,10.13172 -0.35132,14.89597 -3.55811,4.28584 -4.88093,4.59646 -8.98845,2.11064 z"
           style="fill:#fcc6b6" />
        <path
           id="path3187"
           d="m 164.07446,916.9436 c 0.33992,-0.55 1.06803,-1 1.61803,-1 0.55,0 0.72189,0.45 0.38197,1 -0.33992,0.55 -1.06803,1 -1.61803,1 -0.55,0 -0.72189,-0.45 -0.38197,-1 z m 15.86726,-3.77224 c -1.42817,-1.15698 -2.34597,-3.37956 -2.77818,-6.72776 -0.35499,-2.75 -0.87727,-6.8 -1.16063,-9 -0.63335,-4.91747 0.30316,-6.41121 4.67526,-7.45707 1.86796,-0.44683 4.18379,-1.13743 5.14629,-1.53467 1.38018,-0.56961 1.75,-0.21682 1.75,1.66941 0,1.31541 0.9,4.95231 2,8.08201 1.1,3.12969 2,6.6016 2,7.71534 0,1.35831 -0.65844,2.02498 -2,2.02498 -1.61905,0 -2,0.66667 -2,3.5 0,3.15691 -0.26957,3.49782 -2.75,3.47776 -1.5125,-0.0122 -3.70973,-0.79973 -4.88274,-1.75 z m -18.62479,-1.06919 c -3.28171,-1.97384 -3.41746,-2.3794 -4.2374,-12.65857 -0.80902,-10.14237 0.0964,-11.68239 6.35676,-10.81264 4.18382,0.58125 4.47966,0.85505 7.24921,6.70931 3.85095,8.14012 3.70716,10.04334 -1.11219,14.72035 -4.47969,4.34739 -4.43931,4.33741 -8.25638,2.04155 z"
           style="fill:#fcb8b7" />
        <path
           id="path3185"
           d="m 180.95274,913.78034 c -1.68968,-0.81858 -2.47019,-2.83106 -3.833,-9.88312 -2.09004,-10.81512 -1.64459,-12.66589 3.26108,-13.54927 2.0315,-0.36582 4.20048,-1.06536 4.81994,-1.55453 0.77792,-0.61429 1.49677,0.58187 2.324,3.8671 0.65874,2.61606 1.55572,5.21247 1.99331,5.76978 0.43758,0.55732 1.09968,2.7008 1.47131,4.7633 0.60026,3.33127 0.44732,3.75 -1.36961,3.75 -1.71953,0 -2.04531,0.63713 -2.04531,4 0,3.50153 -0.28039,3.99157 -2.25,3.93232 -1.2375,-0.0372 -3.20478,-0.53023 -4.37172,-1.09558 z m -19.9947,-2.63358 c -2.78682,-2.54536 -3.12379,-3.53611 -3.74785,-11.01905 -0.7913,-9.4884 0.22403,-12.72439 3.69989,-11.79201 1.19041,0.31933 3.15582,0.58674 4.36759,0.59425 1.65866,0.0103 2.72727,1.18765 4.32359,4.76365 3.4929,7.82464 3.41122,11.85531 -0.3316,16.3645 -1.75736,2.1172 -3.65741,3.85756 -4.22234,3.86747 -0.56493,0.01 -2.4051,-1.24055 -4.08928,-2.77881 z"
           style="fill:#fbb4a7" />
        <path
           id="path3183"
           d="m 181.40888,913.54887 c -1.90156,-0.94762 -2.66716,-2.73407 -4.12887,-9.6343 -2.11431,-9.98096 -1.48228,-12.43122 3.4804,-13.49292 1.82273,-0.38995 3.82089,-1.11594 4.44035,-1.61331 0.78167,-0.6276 1.49279,0.55112 2.324,3.85218 0.65874,2.61606 1.55572,5.21247 1.99331,5.76978 0.43758,0.55732 1.09346,2.66764 1.45749,4.68962 0.59423,3.30058 0.4287,3.70941 -1.61961,4 -1.89768,0.26923 -2.23157,0.84875 -1.98478,3.44483 0.34701,3.6502 -2.13396,4.89193 -5.96229,2.98412 z m -19.59537,-1.75085 c -3.85286,-2.43946 -4.12485,-3.26446 -4.46668,-13.54855 -0.29145,-8.76823 0.67103,-11.1791 3.91041,-9.79498 0.99947,0.42706 2.70818,0.82431 3.79713,0.88279 2.50572,0.13456 5.98356,6.56952 6.78668,12.55723 0.55271,4.12079 0.33707,4.68072 -3.14285,8.16065 l -3.73629,3.73628 -3.1484,-1.99342 z"
           style="fill:#fbc693" />
        <path
           id="path3181"
           d="m 181.40888,913.54887 c -1.90156,-0.94762 -2.66716,-2.73407 -4.12887,-9.6343 -2.11431,-9.98096 -1.48228,-12.43122 3.4804,-13.49292 1.82273,-0.38995 3.82089,-1.11594 4.44035,-1.61331 0.78167,-0.6276 1.49279,0.55112 2.324,3.85218 0.65874,2.61606 1.55572,5.21247 1.99331,5.76978 0.43758,0.55732 1.09346,2.66764 1.45749,4.68962 0.59423,3.30058 0.4287,3.70941 -1.61961,4 -1.89768,0.26923 -2.23157,0.84875 -1.98478,3.44483 0.34701,3.6502 -2.13396,4.89193 -5.96229,2.98412 z m -19.59537,-1.75085 c -3.85797,-2.44269 -4.12541,-3.25919 -4.46668,-13.63661 -0.21296,-6.47571 0.053,-8.48421 1.21927,-9.20836 0.92359,-0.57346 1.85661,-0.5612 2.45,0.0322 0.5271,0.5271 2.21605,0.95836 3.75324,0.95836 2.32203,0 3.11778,0.71903 4.70349,4.25 1.04975,2.3375 2.1601,6.00739 2.46746,8.15531 0.5041,3.52278 0.18969,4.27446 -3.20977,7.67393 l -3.76861,3.7686 -3.1484,-1.99342 z"
           style="fill:#fba7a6" />
        <path
           id="path3179"
           d="m 180.42487,912.6936 c -2.246,-1.83276 -5.24235,-17.14915 -3.86013,-19.73183 0.59405,-1.10999 1.40175,-2.02891 1.7949,-2.04203 0.39315,-0.0131 2.38169,-0.41108 4.41898,-0.88435 l 3.70417,-0.86049 1.20496,5.38435 c 0.66273,2.96139 1.63584,5.38435 2.16247,5.38435 0.52663,0 0.72226,0.89955 0.43475,1.999 -0.28751,1.09946 -0.115,2.25101 0.38337,2.55902 1.72728,1.06752 0.8953,2.41725 -1.34388,2.18019 -1.77357,-0.18777 -2.27296,0.29115 -2.35843,2.26179 -0.20189,4.65475 -0.38835,5 -2.70044,5 -1.26988,0 -2.9982,-0.5625 -3.84072,-1.25 z m -19.64276,-1.72785 c -3.80444,-3.17207 -5.11148,-21.0776 -1.63594,-22.41129 0.75033,-0.28793 1.63021,-0.0932 1.95528,0.43281 0.32508,0.52598 1.92562,0.95633 3.55678,0.95633 3.39807,0 4.50718,2.01814 5.96224,10.84895 0.82009,4.97716 0.69273,5.58534 -1.83233,8.74997 -3.07999,3.86011 -4.73127,4.15366 -8.00603,1.42323 z"
           style="fill:#fb9fa0" />
        <path
           id="path3177"
           d="m 180.32446,912.8635 c -0.9625,-0.5606 -1.75,-1.98067 -1.75,-3.1557 0,-1.17503 -0.70563,-4.95003 -1.56806,-8.38889 -1.97329,-7.8683 -1.07849,-9.92916 4.82218,-11.10618 l 4.24588,-0.84693 1.23482,4.0389 c 0.67915,2.22139 1.24165,5.24426 1.25,6.71747 0.008,1.47322 0.72232,3.38572 1.58661,4.25 0.86428,0.86429 1.20178,1.62334 0.75,1.68678 -0.45179,0.0634 -1.49643,0.17594 -2.32143,0.25 -0.89743,0.0806 -1.5,1.13894 -1.5,2.63465 0,4.68395 -2.72313,6.26534 -6.75,3.9199 z m -18.59061,-1.52081 c -3.18441,-2.23045 -4.15936,-5.40703 -4.3244,-14.08961 -0.10379,-5.46081 0.23701,-7.73594 1.25286,-8.36377 0.80738,-0.49899 1.7993,-0.45856 2.35379,0.0959 0.5271,0.5271 2.2295,0.95836 3.78311,0.95836 3.22728,0 4.77525,2.79781 4.77525,8.63084 0,1.92535 0.46718,4.37357 1.03817,5.44049 0.83398,1.5583 0.48978,2.62715 -1.75,5.43423 -3.14945,3.94716 -3.90883,4.14887 -7.12878,1.89353 z"
           style="fill:#fba896" />
        <path
           id="path3175"
           d="m 180.38153,912.23762 c -1.73595,-1.96787 -4.23706,-14.37731 -3.66592,-18.18864 0.28615,-1.90951 1.28961,-2.62988 4.95335,-3.55593 l 4.5945,-1.16131 1.1555,4.32028 c 0.63553,2.37616 1.1555,5.40668 1.1555,6.7345 0,1.32782 0.70714,3.12137 1.57143,3.98565 0.86428,0.86429 1.20178,1.62334 0.75,1.68678 -0.45179,0.0634 -1.49643,0.17594 -2.32143,0.25 -0.91279,0.0819 -1.69574,1.5048 -2,3.63465 -0.58275,4.07922 -3.62426,5.20588 -6.19293,2.29402 z m -19.3807,-1.60369 c -2.4799,-2.13313 -2.72327,-3.03845 -3.18385,-11.84386 -0.42411,-8.10811 -0.25997,-9.6258 1.09736,-10.14665 0.87784,-0.33686 1.86204,-0.18213 2.18711,0.34385 0.32508,0.52598 1.66397,0.95633 2.97532,0.95633 3.15873,0 5.49769,3.52618 5.49769,8.28825 0,2.11378 0.46554,4.71311 1.03454,5.77629 0.85492,1.59744 0.42667,2.54092 -2.46667,5.43425 -1.92566,1.92567 -3.71611,3.50121 -3.97877,3.50121 -0.26267,0 -1.68589,-1.03935 -3.16273,-2.30967 z"
           style="fill:#fb9997" />
        <path
           id="path3173"
           d="m 180.61925,912.49757 c -1.54558,-1.86231 -3.96316,-11.97209 -4.00917,-16.76543 -0.0337,-3.51238 0.18575,-3.77106 4.09158,-4.82279 2.32002,-0.62472 4.50572,-0.73283 4.99166,-0.24689 0.47544,0.47544 1.39155,3.48908 2.03578,6.69698 0.89078,4.43548 0.89278,6.27859 0.008,7.69478 -0.63959,1.02423 -1.16294,3.1702 -1.16294,4.76882 0,3.89193 -3.60222,5.50971 -5.95521,2.67453 z M 161.2105,910.6419 c -2.67903,-2.14379 -2.89701,-2.87138 -3.37577,-11.26821 -0.41609,-7.29756 -0.2244,-9.21497 1.02493,-10.25182 1.03553,-0.85942 1.74811,-0.9334 2.18479,-0.22683 0.35642,0.57671 1.69139,1.04856 2.96658,1.04856 3.39213,0 4.82534,2.37252 5.16837,8.55569 0.16748,3.01883 0.57322,5.92356 0.90165,6.45497 0.54751,0.8859 -4.35593,7.99571 -5.50659,7.98434 -0.275,-0.003 -1.78878,-1.03623 -3.36396,-2.2967 z"
           style="fill:#fac868" />
        <path
           id="path3171"
           d="m 180.61925,912.49757 c -1.54558,-1.86231 -3.96316,-11.97209 -4.00917,-16.76543 -0.0337,-3.51238 0.18575,-3.77106 4.09158,-4.82279 2.32002,-0.62472 4.50572,-0.73283 4.99166,-0.24689 0.47544,0.47544 1.39155,3.48908 2.03578,6.69698 0.89078,4.43548 0.89278,6.27859 0.008,7.69478 -0.63959,1.02423 -1.16294,3.1702 -1.16294,4.76882 0,3.89193 -3.60222,5.50971 -5.95521,2.67453 z m -19.45977,-1.89636 c -2.83469,-2.2682 -2.91733,-2.59171 -3,-11.74503 l -0.085,-9.41258 4,0.33285 c 5.42153,0.45115 6.73448,2.04528 7.09921,8.61958 0.17063,3.07562 0.57895,6.02682 0.90738,6.55823 0.54751,0.8859 -4.35593,7.99571 -5.50659,7.98434 -0.275,-0.003 -1.81174,-1.05454 -3.41498,-2.33739 z"
           style="fill:#fa9588" />
        <path
           id="path3169"
           d="m 181.27717,912.6936 c -2.29214,-1.70591 -5.542,-17.19589 -4.09055,-19.49693 1.25861,-1.99531 7.28306,-3.75785 8.54186,-2.49904 1.62734,1.62734 3.20598,13.28597 1.96678,14.52517 -0.61644,0.61644 -1.1208,2.2908 -1.1208,3.7208 0,2.4 -1.56461,5 -3.00887,5 -0.33488,0 -1.36467,-0.5625 -2.28842,-1.25 z m -19.82628,-2.16376 c -2.22007,-2.05857 -2.7042,-3.5724 -3.28996,-10.28744 -0.75026,-8.60077 -0.13895,-11.72478 2.12436,-10.85627 0.79901,0.30661 2.52511,0.55747 3.83577,0.55747 3.1779,0 4.5433,2.83475 4.90988,10.19353 0.23862,4.78997 -0.13818,6.723 -1.82795,9.37775 -1.17069,1.83924 -2.35813,3.36311 -2.63875,3.38639 -0.28062,0.0233 -1.68163,-1.04386 -3.11335,-2.37143 z"
           style="fill:#fa8b86" />
        <path
           id="path3167"
           d="m 180.07939,911.6936 c -0.96604,-2.79329 -3.50493,-15.00852 -3.50493,-16.86308 0,-1.34263 1.1834,-2.48343 3.64167,-3.51056 5.43653,-2.27153 6.86784,-0.40276 6.82572,8.91194 -0.0454,10.04111 -0.8895,12.7117 -4.01783,12.7117 -1.38178,0 -2.70687,-0.5625 -2.94463,-1.25 z m -19.29027,-2.20424 c -1.3053,-1.65942 -2.14743,-4.84806 -2.60032,-9.84592 -0.87694,-9.67732 -0.44657,-10.69807 4.21367,-9.99407 2.01959,0.30509 4.11891,0.96552 4.66515,1.46762 0.54623,0.50211 1.2459,4.156 1.55481,8.11977 0.48082,6.16945 0.2748,7.60269 -1.43121,9.95684 -2.45809,3.39195 -3.91374,3.4592 -6.4021,0.29576 z"
           style="fill:#f9aa67" />
        <path
           id="path3165"
           d="m 180.23917,912.1936 c -0.24933,-0.4125 -1.26783,-4.68555 -2.26334,-9.49567 -1.97889,-9.5616 -1.79281,-10.20809 3.36397,-11.68703 4.53536,-1.30072 5.74188,0.67547 5.70205,9.33952 -0.0452,9.8259 -0.90819,12.59318 -3.92743,12.59318 -1.33206,0 -2.62592,-0.3375 -2.87525,-0.75 z m -19.45005,-2.70424 c -1.3053,-1.65942 -2.14743,-4.84806 -2.60032,-9.84592 -0.79775,-8.8035 -0.22455,-11.09678 2.41988,-9.68153 1.00886,0.53993 2.95856,0.98169 4.33265,0.98169 2.92589,0 3.40329,1.19686 3.78937,9.5 0.20907,4.49625 -0.18031,6.68922 -1.55363,8.75 -2.26265,3.39527 -3.89059,3.47065 -6.38795,0.29576 z"
           style="fill:#fa8974" />
        <path
           id="path3163"
           d="m 180.72006,911.61903 c -1.4979,-1.80485 -4.31584,-15.56371 -3.63009,-17.72428 0.67874,-2.13853 7.23738,-3.59767 8.86474,-1.9722 1.21641,1.215 1.28853,11.23559 0.1243,17.27105 -0.76211,3.95089 -3.18344,5.04676 -5.35895,2.42543 z m -19.6989,-1.73433 c -2.13154,-2.35532 -3.97555,-16.59894 -2.39543,-18.50288 0.51226,-0.61723 0.59778,-1.47929 0.19005,-1.91568 -0.40772,-0.4364 0.2416,-0.28249 1.44294,0.34201 1.20134,0.6245 3.09801,1.13545 4.21481,1.13545 1.11681,0 2.51821,0.91118 3.11423,2.02485 2.07725,3.88138 -0.75392,18.97515 -3.5592,18.97515 -0.62927,0 -1.9826,-0.9265 -3.0074,-2.0589 z"
           style="fill:#fa7c74" />
        <path
           id="path3161"
           d="m 180.91399,911.73649 c -0.5371,-0.71109 -1.7753,-4.79608 -2.75154,-9.07776 -1.36171,-5.97223 -1.5043,-8.11105 -0.6124,-9.18572 1.45048,-1.74772 6.93018,-3.02459 8.07048,-1.88057 1.16986,1.17368 1.36105,11.98823 0.29772,16.84039 -0.90326,4.12175 -3.22742,5.65609 -5.00426,3.30366 z M 162.4878,910.6618 c -3.08149,-2.3659 -4.01734,-5.72011 -3.8248,-13.70865 0.17568,-7.28887 0.33626,-7.85257 1.98556,-6.96989 0.98693,0.52818 2.70817,0.96034 3.82497,0.96034 1.11681,0 2.4717,0.82427 3.01086,1.83171 1.24877,2.33334 0.244,12.81559 -1.57376,16.41829 -1.59155,3.15436 -1.35745,3.05394 -3.42283,1.4682 z"
           style="fill:#f97568" />
        <path
           id="path3159"
           d="m 181.18872,912.12848 c -1.12357,-1.81798 -3.61426,-12.66104 -3.61426,-15.73446 0,-2.38301 0.60749,-3.40618 2.54705,-4.28991 5.29419,-2.41219 6.50298,-1.14797 6.37883,6.67128 -0.13265,8.35393 -1.29475,13.61677 -3.08264,13.96046 -0.91122,0.17517 -1.91426,-0.0982 -2.22898,-0.60737 z m -20.20927,-3.28761 c -1.53322,-1.69237 -1.9442,-3.84084 -2.10589,-11.00891 -0.19049,-8.44507 -0.10329,-8.85393 1.68426,-7.89726 1.03684,0.55489 2.78818,1.0089 3.89188,1.0089 1.1037,0 2.34895,0.55373 2.76722,1.2305 1.11829,1.80944 0.48625,12.83248 -0.91853,16.0195 -1.4532,3.29687 -2.77301,3.45748 -5.31894,0.64727 z"
           style="fill:#f9904b" />
        <path
           id="path3157"
           d="m 181.18872,912.12848 c -1.14282,-1.84912 -3.61426,-12.68601 -3.61426,-15.84797 0,-2.88972 0.40359,-3.35434 3.7057,-4.26609 4.58817,-1.26686 5.28526,-0.4058 5.20486,6.42918 -0.10111,8.5965 -1.24846,13.94261 -3.06732,14.29225 -0.91122,0.17517 -1.91426,-0.0982 -2.22898,-0.60737 z m -20.20649,-3.28679 c -1.44296,-1.59445 -1.9879,-3.98904 -2.25717,-9.91855 l -0.35497,-7.81664 4.35218,0.55614 c 2.39371,0.30587 4.5587,0.73823 4.8111,0.96079 0.90854,0.80113 -0.0496,12.88089 -1.23498,15.57017 -1.45309,3.29661 -2.77359,3.45759 -5.31616,0.64809 z"
           style="fill:#f96c64" />
        <path
           id="path3155"
           d="m 182.00194,912.15744 c -1.28515,-0.85536 -4.42748,-11.79022 -4.42748,-15.407 0,-2.82016 1.32386,-4.22994 4.76309,-5.07221 3.51518,-0.86088 4.61133,2.30777 3.86257,11.16552 -0.62875,7.43814 -2.10279,10.70831 -4.19818,9.31369 z m -19.65615,-2.43812 c -2.51948,-1.91174 -3.77133,-6.20961 -3.77133,-12.94781 0,-5.09857 0.24696,-5.94712 1.58179,-5.4349 0.86998,0.33384 2.89498,0.60699 4.5,0.60699 l 2.91821,0 -0.0222,7.25 c -0.0164,5.34852 -0.4816,7.84686 -1.7737,9.52572 -1.48125,1.92462 -2.01085,2.0789 -3.43274,1 z"
           style="fill:#f8a727" />
        <path
           id="path3153"
           d="m 182.00194,912.15744 c -1.28515,-0.85536 -4.42748,-11.79022 -4.42748,-15.407 0,-2.82016 1.32386,-4.22994 4.76309,-5.07221 3.51518,-0.86088 4.61133,2.30777 3.86257,11.16552 -0.62875,7.43814 -2.10279,10.70831 -4.19818,9.31369 z m -19.65615,-2.43812 c -2.51948,-1.91174 -3.77133,-6.20961 -3.77133,-12.94781 0,-5.09857 0.24696,-5.94712 1.58179,-5.4349 0.86998,0.33384 1.72785,0.60699 1.90638,0.60699 0.17852,0 0.0911,0.89278 -0.19423,1.98395 -0.66163,2.5301 0.44138,7.01605 1.72511,7.01605 0.53952,0 0.98095,-2.025 0.98095,-4.5 0,-3.33333 0.38889,-4.5 1.5,-4.5 2.31179,0 2.07009,13.70149 -0.29594,16.77572 -1.48125,1.92462 -2.01084,2.0789 -3.43273,1 z"
           style="fill:#f97656" />
        <path
           id="path3151"
           d="m 182.00194,912.15744 c -1.30059,-0.86563 -4.42748,-11.8084 -4.42748,-15.49426 0,-2.81806 2.38324,-4.71958 5.91521,-4.71958 2.73688,0 3.51703,3.46196 2.66677,11.83399 -0.68096,6.70511 -2.16705,9.70263 -4.1545,8.37985 z m -19.6862,-2.46009 c -2.64876,-2.01116 -3.61818,-6.01981 -3.02848,-12.52309 0.39024,-4.30358 0.91579,-5.92668 1.80816,-5.58424 0.69191,0.26551 1.03216,1.34646 0.7561,2.40212 -0.64783,2.47728 0.47338,6.95146 1.74199,6.95146 0.53952,0 0.98095,-2.025 0.98095,-4.5 0,-4.55243 1.37549,-6.04303 2.45059,-2.65567 0.719,2.26536 -1.01511,15.12019 -2.19947,16.30455 -0.47815,0.47815 -1.59029,0.30306 -2.50984,-0.39513 z"
           style="fill:#f88f2e" />
        <path
           id="path3149"
           d="m 182.00194,912.15744 c -1.30059,-0.86563 -4.42748,-11.8084 -4.42748,-15.49426 0,-2.81806 2.38324,-4.71958 5.91521,-4.71958 2.73688,0 3.51703,3.46196 2.66677,11.83399 -0.68096,6.70511 -2.16705,9.70263 -4.1545,8.37985 z m -19.60247,-2.28383 c -2.66678,-1.50524 -3.80043,-6.75809 -2.89841,-13.43001 0.6194,-4.58155 0.84216,-5.12459 0.94228,-2.29705 0.16099,4.5464 1.99307,8.79705 3.79163,8.79705 0.96049,0 1.34809,-1.62693 1.3699,-5.75 0.0233,-4.40049 0.27006,-5.3385 1.05154,-3.99669 1.11218,1.90963 -0.30428,15.37887 -1.76899,16.82145 -0.44713,0.44038 -1.56671,0.37524 -2.48795,-0.14475 z"
           style="fill:#f96656" />
        <path
           id="path3147"
           d="m 181.27056,911.1936 c -0.23207,-0.4125 -1.21163,-4.031 -2.17681,-8.0411 -1.6772,-6.9684 -1.67641,-7.3778 0.0179,-9.25 0.97502,-1.0774 2.76607,-1.9589 3.98011,-1.9589 1.91826,0 2.28765,0.68753 2.82066,5.25 0.33734,2.8875 0.4264,6.15 0.19791,7.25 -0.22848,1.1 -0.6761,3.2375 -0.9947,4.75 -0.53504,2.53994 -2.86076,3.74965 -3.84508,2 z m -20.1394,-3.47251 c -1.11749,-1.59544 -1.51155,-4.34633 -1.39666,-9.75 0.088,-4.14012 0.32918,-5.95249 0.53592,-4.02749 1.06111,9.88038 5.29481,12.46707 5.31935,3.25 0.0111,-4.14972 0.29159,-5.33254 1.00802,-4.25 1.88648,2.85051 -0.72336,17 -3.13561,17 -0.42587,0 -1.47483,-1.00013 -2.33102,-2.22251 z"
           style="fill:#f87844" />
        <path
           id="path3145"
           d="m 181.27056,911.1936 c -0.23207,-0.4125 -1.22583,-4.08894 -2.20836,-8.16986 l -1.78643,-7.41986 2.26013,-1.83014 c 4.07651,-3.30096 5.69263,-2.4342 6.37653,3.41986 0.33734,2.8875 0.4264,6.15 0.19791,7.25 -0.22848,1.1 -0.6761,3.2375 -0.9947,4.75 -0.53504,2.53994 -2.86076,3.74965 -3.84508,2 z m -20.1394,-3.47251 c -1.68769,-2.40951 -2.14046,-8.77749 -0.62409,-8.77749 0.51294,0 1.21826,0.9 1.56739,2 0.34913,1.1 1.27945,2 2.06739,2 1.48177,0 1.88623,2.65431 0.82562,5.41821 -0.83507,2.17617 -1.9995,1.9817 -3.83631,-0.64072 z m 4.45861,-10.58651 c -0.009,-2.62138 0.37634,-4.06696 0.98469,-3.69098 1.2685,0.78398 1.2685,4.53713 0,6.5 -0.70877,1.09674 -0.97349,0.34157 -0.98469,-2.80902 z"
           style="fill:#f96547" />
        <path
           id="path3143"
           d="m 181.27056,911.1936 c -0.23207,-0.4125 -1.2224,-4.07496 -2.20075,-8.13879 l -1.77881,-7.38879 2.39173,-1.85364 c 1.31545,-1.0195 3.06673,-1.73864 3.89173,-1.59809 2.56229,0.43651 3.33281,10.73419 1.34529,17.97931 -0.48139,1.75482 -2.85813,2.40613 -3.64919,1 z m -20.1394,-3.47251 c -1.71422,-2.44739 -2.08719,-7.33159 -0.6287,-8.23299 0.51041,-0.31545 1.21573,0.33299 1.56739,1.44098 0.35166,1.10799 1.28406,2.01452 2.072,2.01452 1.54518,0 1.75012,1.2133 0.80232,4.75 -0.76127,2.84068 -1.83714,2.84843 -3.81301,0.0275 z m 4.71566,-10.77749 c 0,-2.475 0.19502,-3.4875 0.43337,-2.25 0.23836,1.2375 0.23836,3.2625 0,4.5 -0.23835,1.2375 -0.43337,0.225 -0.43337,-2.25 z"
           style="fill:#f87637" />
        <path
           id="path3141"
           d="m 181.27056,911.1936 c -1.3015,-2.31344 -3.81424,-15.51051 -3.07198,-16.13419 2.11924,-1.78067 6.32464,-3.00774 6.93324,-2.023 0.89503,1.44819 0.93106,13.97216 0.0479,16.65719 -0.71185,2.16425 -3.03417,3.05535 -3.90918,1.5 z m -20.1394,-3.47251 c -1.89753,-2.7091 -2.11846,-8.13141 -0.3067,-7.52749 0.6875,0.22917 1.25,0.97794 1.25,1.66394 0,0.68601 0.76594,1.80735 1.70209,2.49188 1.09786,0.80278 1.5002,2.01663 1.13337,3.41939 -0.72377,2.76767 -1.81644,2.75388 -3.77876,-0.0477 z"
           style="fill:#f95947" />
        <path
           id="path3139"
           d="m 181.07693,908.3252 c -0.89888,-2.13488 -1.88744,-5.97767 -2.19679,-8.53953 -0.53507,-4.43117 -0.41126,-4.73611 2.54336,-6.26401 3.06503,-1.58498 3.11446,-1.57168 3.76318,1.01304 0.83773,3.33777 -0.26675,15.46342 -1.52292,16.71959 -0.60332,0.60333 -1.55161,-0.47042 -2.58683,-2.92909 z m -19.94937,-1.9409 c -1.73917,-2.65431 -1.76322,-6.12764 -0.0394,-5.6907 0.54247,0.1375 0.98631,0.73627 0.98631,1.33061 0,0.59434 0.79532,1.66216 1.76737,2.37295 1.05669,0.77267 1.51631,1.94659 1.14301,2.91938 -0.87597,2.28274 -1.91533,2.03154 -3.85728,-0.93224 z"
           style="fill:#f86636" />
        <path
           id="path3137"
           d="m 181.03879,908.23391 c -0.87791,-2.08467 -1.8542,-5.92781 -2.16955,-8.54031 -0.47898,-3.96811 -0.30352,-4.75 1.06593,-4.75 0.90161,0 1.63929,-0.45 1.63929,-1 0,-0.55 0.61703,-1 1.37117,-1 2.65993,0 3.14174,16.94693 0.52774,18.56248 -0.46111,0.28498 -1.55667,-1.1875 -2.43458,-3.27217 z m -19.84932,-1.75513 c -1.98831,-3.03454 -2.07595,-5.20185 -0.21035,-5.20185 0.77256,0 1.20208,0.52791 0.95449,1.17312 -0.24759,0.64522 0.24531,1.75032 1.09534,2.45578 1.6689,1.38507 2.10285,4.03777 0.66052,4.03777 -0.48675,0 -1.61175,-1.10917 -2.5,-2.46482 z"
           style="fill:#f87625" />
        <path
           id="path3135"
           d="m 181.03879,908.23391 c -2.37362,-5.63637 -3.12438,-13.29031 -1.30362,-13.29031 0.79161,0 1.97929,0.54 2.63929,1.2 0.93333,0.93333 1.22435,0.65556 1.30957,-1.25 0.064,-1.43104 0.49036,-0.57843 1.02516,2.05 0.97852,4.80922 0.25046,13.6439 -1.19815,14.5392 -0.48183,0.29778 -1.59434,-1.16422 -2.47225,-3.24889 z m -19.84932,-1.75513 c -0.88826,-1.35565 -1.61277,-3.26815 -1.61004,-4.25 0.004,-1.38626 0.55447,-1.11479 2.46403,1.21482 2.5072,3.05871 3.23781,5.5 1.64601,5.5 -0.48675,0 -1.61175,-1.10917 -2.5,-2.46482 z"
           style="fill:#f84c44" />
        <path
           id="path3133"
           d="m 180.2359,905.85828 c -2.08019,-6.44092 -2.17055,-10.91468 -0.22046,-10.91468 0.79254,0 1.78583,0.55796 2.2073,1.23992 0.51891,0.83962 0.96887,0.43607 1.39375,-1.25 0.46839,-1.85877 0.80267,-0.96902 1.31871,3.51008 0.71114,6.17236 -0.18036,11.60654 -2.00382,12.21436 -0.56872,0.18957 -1.78169,-1.97028 -2.69548,-4.79968 z m -18.5123,-0.55793 c -1.29298,-1.23837 -2.18431,-2.75123 -1.98075,-3.36191 0.20356,-0.61068 1.41357,0.30103 2.68891,2.02602 2.80692,3.79656 2.48839,4.39744 -0.70816,1.33589 z"
           style="fill:#f86827" />
        <path
           id="path3131"
           d="m 180.2359,905.85828 c -1.86184,-5.76484 -2.17392,-10.91468 -0.66144,-10.91468 0.55,0 1,0.45 1,1 0,0.55 0.68465,1 1.52144,1 2.50204,0 3.88913,4.40836 2.87647,9.14182 -0.49385,2.30842 -1.38776,4.35915 -1.98647,4.55717 -0.59871,0.19803 -1.83621,-1.95491 -2.75,-4.78431 z m -18.5123,-0.55793 c -1.29298,-1.23837 -2.18431,-2.75123 -1.98075,-3.36191 0.20356,-0.61068 1.41357,0.30103 2.68891,2.02602 2.80692,3.79656 2.48839,4.39744 -0.70816,1.33589 z"
           style="fill:#f8543b" />
        <path
           id="path3129"
           d="m 180.29865,905.15272 c -0.94831,-3.19444 -1.72419,-6.51091 -1.72419,-7.36993 0,-2.36962 4.94315,-1.05807 6.17129,1.6374 1.14526,2.51357 -0.10153,10.66682 -1.71332,11.20409 -0.55528,0.18509 -1.78548,-2.27711 -2.73378,-5.47156 z"
           style="fill:#f8641b" />
        <path
           id="path3127"
           d="m 180.29609,905.14412 c -0.9469,-3.18971 -1.72163,-6.55059 -1.72163,-7.46861 0,-2.24903 2.73366,-1.14642 3.55227,1.43279 0.39906,1.25732 1.18505,1.76634 2.15355,1.39469 1.29252,-0.49599 1.41642,0.14122 0.81229,4.17768 -1.24083,8.29061 -2.43855,8.40634 -4.79648,0.46345 z"
           style="fill:#f84936" />
        <path
           id="path3125"
           d="m 181.14286,906.45307 c -1.73239,-4.14621 -2.09098,-9.50947 -0.63579,-9.50947 0.51294,0 1.22859,0.93254 1.59034,2.07232 0.41698,1.31378 1.20605,1.86191 2.15571,1.49749 1.24752,-0.47871 1.38241,0.1362 0.80674,3.67768 -0.9703,5.96925 -2.09631,6.6195 -3.917,2.26198 z"
           style="fill:#f85818" />
        <path
           id="path3123"
           d="m 181.09683,906.3429 c -0.88794,-2.12514 -1.44768,-5.22186 -1.24388,-6.8816 l 0.37056,-3.0177 0.81643,3.32977 c 0.62382,2.54421 1.24413,3.21792 2.62934,2.85569 1.54861,-0.40498 1.72746,-0.0157 1.22681,2.67022 -0.91755,4.92246 -2.04875,5.23318 -3.79926,1.04362 z"
           style="fill:#f84528" />
        <path
           id="path3121"
           d="m 182.18715,908.75698 c -2.04329,-7.19112 -2.31672,-8.87827 -1.51879,-9.37142 0.49836,-0.30799 0.9061,0.36656 0.9061,1.49902 0,1.16357 0.65233,2.05902 1.5,2.05902 0.99331,0 1.5,0.99344 1.5,2.94098 0,3.06564 -1.73817,5.15699 -2.38731,2.8724 z"
           style="fill:#f83b28" />
        <path
           id="path3119"
           d="m 181.63518,905.09018 c -0.68081,-1.64361 -1.02518,-3.81148 -0.76528,-4.81748 0.38073,-1.47369 0.4951,-1.3919 0.58856,0.4209 0.0661,1.28178 0.76148,2.25 1.616,2.25 1.64633,0 1.93861,1.75999 0.63396,3.81749 -0.60865,0.95987 -1.1714,0.50633 -2.07324,-1.67091 z"
           style="fill:#f8461a" />
        <path
           id="path3117"
           d="m 182.21283,906.4436 c -0.3471,-0.90455 -0.005,-1.5 0.86163,-1.5 0.86669,0 1.20873,0.59545 0.86163,1.5 -0.31659,0.825 -0.70432,1.5 -0.86163,1.5 -0.15731,0 -0.54504,-0.675 -0.86163,-1.5 z"
           style="fill:#f8381c" />
      </g>
    </g>
  </g>
</svg>
