<?xml version="1.0" ?><!DOCTYPE svg  PUBLIC '-//W3C//DTD SVG 1.1//EN'  'http://www.w3.org/Graphics/SVG/1.1/DTD/svg11.dtd' [
	<!ENTITY stroke_color "#000">
	<!ENTITY fill_color "#eee">
]><svg height="55px" viewBox="0 0 55 55" width="55px" xmlns="http://www.w3.org/2000/svg" xmlns:xlink="http://www.w3.org/1999/xlink" stroke-linecap="round" stroke-linejoin="round" stroke-width="3.5" stroke="&stroke_color;" fill="&fill_color;">
 <path d="M 53.9248 27.4056 C 53.9248 41.9873 41.9624 53.9862 27.4251 53.9862 C 20.3996 53.9862 13.6547 51.1838 8.68697 46.2009 C 3.71922 41.218 0.925383 34.4525 0.925383 27.4056 C 0.925383 20.3587 3.71922 13.5932 8.68697 8.61028 C 13.6547 3.62737 20.3996 0.825013 27.4251 0.825013 C 41.9624 0.825013 53.9248 12.8239 53.9248 27.4056 Z " stroke="none" />
 <path d="M 23.696 40.8676 C 23.6638 40.7261 23.3132 40.3156 23.0448 40.2238 C 22.7773 40.132 22.5142 40.6195 22.3419 39.8102 C 21.7765 40.1352 21.5326 39.7206 21.5326 39.7206 C 21.5326 39.7206 20.923 39.7564 20.8051 40.5045 C 20.5148 40.8488 19.7708 42.1009 20.166 40.7986 C 20.5639 39.4883 19.7462 40.6957 19.6703 41.3537 C 19.5282 41.6461 19.2884 41.6756 19.4394 40.3608 C 18.9155 40.1795 18.648 38.9609 18.9352 38.9376 C 18.6015 38.4716 18.8637 37.7589 19.1415 37.797 C 19.4193 37.8328 19.8963 37.1881 19.8815 37.0386 C 19.8668 36.8895 20.0968 36.9961 20.0825 35.9928 C 20.0677 34.9869 20.4608 34.738 20.4929 35.5792 C 20.5269 36.4172 21.0262 35.3048 20.9748 34.8781 C 20.923 34.4533 21.0248 33.493 21.329 34.0607 C 20.9748 32.6563 21.2544 32.6008 21.467 33.5356 C 21.9998 33.5777 22.0181 33.8624 22.0181 33.8624 C 22.608 33.7169 22.8907 34.1623 22.9363 34.4121 C 23.4829 33.7652 24.0349 34.4627 24.0349 34.4627 C 24.0349 34.4627 24.4159 34.336 24.2337 34.9999 C 24.0506 35.6616 25.0251 35.3034 24.7924 34.828 C 25.2716 34.5849 25.983 35.3213 26.2072 35.8236 C 26.4314 36.3282 25.8231 37.0426 26.2974 37.2154 C 26.7744 37.3874 26.5654 38.2191 26.5654 38.2191 C 26.5654 38.2191 27.5622 38.7733 26.8704 39.2492 L 26.6346 39.8155 C 26.6346 39.8155 27.0857 40.3201 27.2393 40.0197 C 27.393 39.7188 27.4474 40.3254 27.4474 40.3254 C 27.3898 40.218 27.5582 40.9504 28.1799 41.1044 C 28.8042 41.257 29.1995 42.2459 28.5063 42.2585 C 27.8159 42.2697 27.7623 42.2509 27.5752 42.6551 C 27.3889 43.0576 26.5073 43.0719 26.0509 42.5508 C 25.5654 42.7156 24.7017 42.5034 24.9558 42.1139 C 24.5369 42.3588 24.1412 41.7011 24.4686 41.4079 C 24.7959 41.1156 24.2846 40.7368 24.1126 41.1559 C 23.9425 41.5744 23.039 41.7808 23.102 41.0686 C 23.1207 40.8573 23.6022 40.7337 23.6084 40.9101 C 23.6964 41.1138 23.7321 40.894 23.696 40.8676 Z " fill="&stroke_color;" stroke="none" />
 <path d="M 27.807 33.4899 C 27.6565 33.6394 27.8293 34.0911 28.0227 34.0701 C 28.2165 34.0482 28.5184 33.9627 28.5184 33.9627 C 28.5184 33.9627 28.6689 34.2635 28.5184 34.3499 C 28.367 34.4349 27.9293 34.3982 28.4965 34.6073 C 29.0784 34.8222 29.2298 34.7577 29.2732 34.6503 C 29.3156 34.5428 29.5094 34.1775 29.6175 34.1986 C 29.7046 34.0056 29.3156 33.8342 29.5313 33.7052 C 29.747 33.575 29.5755 33.1027 29.5755 33.1027 C 29.5755 33.1027 29.2736 33.1242 29.1441 33.3395 C 29.0146 33.5539 28.8422 33.3176 28.7127 33.3176 C 28.6908 33.4465 28.6055 33.5539 28.6055 33.5539 L 28.5193 33.361 C 28.5188 33.361 27.9146 33.3395 27.807 33.4899 Z " fill="&stroke_color;" stroke="none" />
 <path d="M 54.9208 20.1126 L 54.2839 24.2088 C 54.2839 24.2088 53.3733 16.6252 52.2572 13.7901 C 50.5467 9.44585 49.7857 9.48077 49.7808 9.48703 C 50.9263 12.4054 50.7187 13.9732 50.7187 13.9732 C 50.7187 13.9732 48.6888 8.42784 43.322 6.66356 C 36.9659 4.57517 33.728 5.32994 33.7522 5.35904 C 33.7763 5.38859 40.3213 6.50598 41.482 8.10462 C 41.482 8.10462 38.7019 8.10462 35.9352 8.90372 C 35.8101 8.93953 46.1146 10.1939 48.2212 20.5155 C 48.2212 20.5155 47.0918 18.1531 45.6948 17.752 C 46.6135 20.5535 46.3777 25.8696 45.5028 28.5118 C 45.3902 28.8516 45.275 27.043 43.5516 26.264 C 44.1036 30.2291 43.5185 36.518 40.7741 38.2505 C 40.5602 38.3852 42.4944 32.0421 41.1631 34.4945 C 33.2149 46.7101 23.7652 39.4368 19.9324 36.8443 C 23.0086 37.6 26.2764 37.0556 28.1683 35.7596 C 30.0775 34.4515 31.207 33.4953 32.2212 33.7214 C 33.235 33.9483 33.9098 32.9285 33.1224 32.0238 C 32.3342 31.1172 30.42 29.8714 27.8306 30.5505 C 26.0045 31.0299 23.7415 33.0552 20.287 31.0044 C 17.3399 29.254 17.36 27.8327 17.36 26.927 C 17.36 26.0209 18.1639 24.6439 19.6269 24.87 C 20.9373 25.0728 20.2468 24.3014 21.6568 24.87 C 22.0408 25.0249 21.6184 23.0215 21.0717 21.7381 C 22.1244 19.5359 25.5395 18.8814 25.7946 18.6885 C 26.2563 18.3384 26.0022 18.1638 26.1599 17.6365 C 26.3073 17.1454 26.4015 15.818 22.5794 16.1847 C 20.8207 16.3534 19.702 14.069 19.3353 13.5143 C 19.4541 12.8083 19.6448 12.1632 19.9029 11.5723 C 20.1651 11.0337 20.4514 10.5404 20.7372 10.167 C 20.8265 10.0502 20.9042 9.94769 20.9748 9.85234 C 21.5447 9.1862 22.244 8.61676 23.0837 8.14312 C 23.5218 7.89511 18.1849 8.12745 15.7835 11.2652 C 15.139 11.3494 14.2547 11.1631 13.2664 11.1631 C 12.0275 11.1631 11.0544 11.2988 10.1536 11.5257 C 10.0093 11.562 9.77664 11.5423 9.49215 11.4743 C 8.69943 10.651 6.45658 8.67227 6.35386 5.98847 C 6.35386 5.98847 3.09276 8.50081 3.58089 15.3502 C 3.53802 19.138 2.4224 18.055 1.84851 20.1108 C 1.58145 21.0849 2.25001 21.8186 2.25001 21.8473 C 2.24912 21.8621 3.05211 20.9761 3.05211 20.9761 C 3.05211 20.9761 -2.00479 29.7581 4.52591 40.9692 C 10.1549 50.634 19.601 54.9052 29.4031 54.0735 C 31.1176 53.9615 32.8447 53.7055 34.5677 53.2882 C 57.4039 47.7537 54.9208 20.1126 54.9208 20.1126 Z " fill="&stroke_color;" stroke="none" />
 <path d="M 19.2585 13.1853 C 19.2585 13.1853 20.2455 15.8888 22.4593 15.8798 C 26.6829 15.8628 26.7673 15.9214 26.7945 16.4363 C 26.8785 18.0031 26.1067 18.5166 25.8115 18.7395 C 25.5154 18.962 21.4938 21.2993 21.3459 21.9677 C 21.1981 22.6356 16.7053 15.6116 16.7053 15.6116 L 19.2585 13.1853 Z " fill="&stroke_color;" stroke="none" />
 <path d="M 21.5072 16.0996 C 21.5072 16.0996 22.8791 17.8554 21.8417 18.5578 C 20.5742 19.4155 23.6334 19.6031 24.7419 18.9795 C 25.8504 18.3559 26.531 17.4395 26.5699 17.303 C 26.6087 17.1664 26.9727 15.9358 24.6588 16.3646 C 23.1958 16.6359 22.6598 16.6986 21.5072 16.0996 Z " fill="&stroke_color;" stroke="none" />
 <path d="M 25.812 18.7395 C 26.0362 18.5703 26.5337 18.2305 26.7239 17.3916 C 26.585 17.448 26.5721 17.2886 26.4082 17.3576 C 23.3021 20.6054 23.1833 18.3438 21.4879 18.7991 C 19.9427 19.223 19.5957 19.8046 19.5305 19.8498 C 19.5533 19.8824 19.5769 19.916 19.5997 19.9487 C 20.045 20.1752 20.4719 20.8987 20.7926 21.5442 C 21.1061 21.9185 21.3165 22.1029 21.3468 21.9673 C 21.4942 21.2989 25.5159 18.9616 25.812 18.7395 Z " fill="&stroke_color;" stroke="none" />
 <path d="M 2.60506 21.3204 C 1.97088 22.654 -2.09858 29.5473 4.54288 41.0202 C 11.0419 52.2496 22.2896 55.917 33.7731 53.4252 C 37.0512 52.7143 40.8308 50.1433 43.2394 48.2568 C 41.6919 44.3442 42.6079 44.491 41.7785 45.0058 C 32.5276 50.7464 25.1738 45.0837 19.4822 44.3599 C -1.45591 41.6998 2.67875 21.2787 2.67875 21.2787 L 2.60506 21.3204 Z " fill="&stroke_color;" stroke="none" />
 <path d="M 20.0401 37.0565 C 22.0136 37.6497 26.3193 37.1384 28.1687 35.7596 C 29.4147 34.8311 30.3562 34.131 31.148 33.8382 C 29.7483 32.8851 29.726 34.2362 26.7829 34.9193 C 20.6519 36.3452 17.6753 33.2652 17.6753 33.2652 C 18.1094 35.7023 19.6278 36.8891 20.3111 37.3104 C 20.1298 37.1492 20.0347 37.0547 20.0401 37.0565 Z " fill="&stroke_color;" stroke="none" />
 <path d="M 13.3915 48.1861 C 13.3915 48.1861 8.28766 42.4129 6.86299 35.9476 C 4.76216 33.9586 3.2714 32.2767 2.28127 31.0604 C 2.85293 35.6611 5.19314 42.8037 13.3915 48.1861 Z " fill="&stroke_color;" stroke="none" />
 <path d="M 9.13397 42.943 C 9.13397 42.943 5.6116 37.9165 6.93221 33.6484 C 8.12018 29.8114 6.67988 32.0941 5.84205 32.9142 C 4.99574 33.7428 4.56074 30.4681 4.58218 30.0907 C 4.58352 30.0827 4.58263 30.0791 4.58173 30.0786 C 4.52859 30.0675 2.90518 37.9246 9.13397 42.943 Z " fill="&stroke_color;" stroke="none" />
 <path d="M 3.91585 38.5611 C 3.91585 38.5611 3.11285 28.3596 5.65091 26.9176 C 9.68151 24.6278 5.9872 25.1632 4.81843 25.7989 C 3.63717 26.4404 3.74658 22.2175 3.91361 21.8164 C 4.07752 21.4211 -0.246507 25.8087 3.91585 38.5611 Z " fill="&stroke_color;" stroke="none" />
 <path d="M 21.5505 8.54245 C 21.5505 8.54245 18.3595 11.7912 18.3832 11.8024 C 18.4073 11.814 18.4747 15.9725 18.5788 17.1512 C 18.9611 17.6038 20.1526 20.5481 19.2406 19.8945 C 18.309 19.2275 18.9807 19.2132 19.062 19.5521 C 19.0642 19.5633 19.0642 19.5686 19.062 19.5686 C 19.0004 19.5973 16.7463 14.6787 21.5505 8.54245 Z " fill="&stroke_color;" stroke="none" />
 <path d="M 6.37128 6.03906 C 6.37128 6.03906 2.97976 8.64675 3.62779 15.8006 C 6.25293 13.4382 9.96511 11.6721 9.96511 11.6721 C 9.34209 11.2791 6.48427 8.98743 6.37128 6.03906 Z " fill="&stroke_color;" stroke="none" />
 <path d="M 14.7295 13.8621 L 19.8235 20.2124 C 18.3537 13.9763 19.4836 10.2346 23.1015 8.19371 C 23.637 7.89108 15.5427 8.30249 14.7295 13.8621 Z " fill="&stroke_color;" stroke="none" />
 <path d="M 11.1406 29.5495 C 12.0092 24.0628 19.6269 24.8695 19.6269 24.8695 C 19.2871 25.1225 17.9821 25.2738 17.6083 26.3204 C 16.3748 29.776 17.5511 37.3247 25.2354 40.4906 C 26.046 40.8255 9.85703 37.6577 11.1406 29.5495 Z " fill="&stroke_color;" stroke="none" />
 <path d="M 26.6802 17.5402 C 26.6427 17.5335 26.6096 17.5344 26.5931 17.5568 C 26.4993 17.6826 26.1371 18.1115 25.2756 18.8147 C 23.6754 20.1197 23.001 19.7893 21.8091 20.0566 C 21.2664 20.1779 20.7506 20.5432 20.4031 20.836 C 20.5438 21.0639 20.6751 21.3092 20.7921 21.5442 C 21.1057 21.9185 21.316 22.1029 21.3464 21.9673 C 21.4942 21.2989 25.5159 18.9616 25.812 18.7391 C 26.0219 18.5811 26.4676 18.2672 26.6802 17.5402 Z " fill="&stroke_color;" stroke="none" />
 <path d="M 21.7689 25.8343 C 21.8135 24.6748 21.7327 21.8585 20.53 20.6363 C 19.6113 19.7029 19.3956 18.6334 19.2723 17.4126 C 9.28493 21.152 7.85892 26.0402 8.85753 25.8813 C 16.8455 24.6121 19.091 24.4568 21.7689 25.8343 Z " fill="&stroke_color;" stroke="none" />
 <path d="M 0.475206 32.6863 C 0.475206 32.6863 1.16923 23.6469 5.68306 20.3386 C 9.22687 17.7399 6.47489 18.684 5.10649 18.7915 C 3.66352 18.9061 2.89402 19.7857 3.17225 19.4621 C 3.18431 19.4487 3.18833 19.441 3.1861 19.4375 C 3.13876 19.3815 -0.200953 22.1906 0.475206 32.6863 Z " fill="&stroke_color;" stroke="none" />
 <path d="M 1.87542e-05 25.7416 C 1.87542e-05 25.7416 2.41883 18.0452 7.30736 18.1101 C 10.5493 18.1535 7.97772 15.3641 6.99697 14.9401 C 5.9738 14.501 5.72906 14.518 5.49013 14.7302 C 5.13195 15.048 1.91551 14.9254 1.87542e-05 25.7416 Z " fill="&stroke_color;" stroke="none" />
 <path d="M 32.9764 33.275 C 33.344 32.9138 33.0876 31.5278 30.7773 30.6875 C 28.681 29.9242 25.4087 31.8649 24.4378 32.2481 C 24.4378 32.2481 28.1441 31.5519 29.534 31.7838 C 31.4178 32.0981 32.0796 34.1569 32.9764 33.275 Z " fill="&stroke_color;" stroke="none" />
 <path d="M 3.57062 30.7394 C 3.57062 30.7394 3.16912 23.1728 6.55215 19.9411 C 9.20811 17.4028 7.02957 18.4839 5.90726 18.7216 C 4.72375 18.9732 4.18113 19.7857 4.37719 19.4872 C 4.38568 19.4746 4.38746 19.4679 4.38568 19.4652 C 4.33967 19.4245 1.8762 22.115 3.57062 30.7394 Z " fill="&stroke_color;" stroke="none" />
 <path d="M 0.965131 28.3359 C 0.965131 28.3359 2.39471 20.8951 6.45524 18.5761 C 9.6431 16.7546 7.2694 17.2774 6.12252 17.2371 C 4.91312 17.1955 4.1914 17.8527 4.45311 17.6105 C 4.46428 17.6007 4.46785 17.5939 4.46651 17.5917 C 4.43257 17.5402 1.39476 19.5565 0.965131 28.3359 Z " fill="&stroke_color;" stroke="none" />
 <path d="M 5.78623 31.3899 C 5.78623 31.3899 5.00467 26.88 6.68881 24.66 C 8.03309 22.8886 6.85272 23.7553 6.22881 24.0104 C 5.57766 24.2773 5.33069 24.8033 5.41956 24.6103 C 5.50576 24.4218 2.52199 26.7395 5.78623 31.3899 Z " fill="&stroke_color;" stroke="none" />
 <path d="M 6.67944 27.137 C 6.67944 27.137 5.89788 22.6271 7.58202 20.4071 C 8.9263 18.6357 7.74593 19.5024 7.12202 19.7575 C 6.47087 20.0244 6.2239 20.5504 6.31277 20.3574 C 6.39897 20.169 3.4152 22.4866 6.67944 27.137 Z " fill="&stroke_color;" stroke="none" />
 <path d="M 1.95525 20.9716 C 1.95525 20.9716 3.78053 17.2224 6.20693 16.4842 C 8.14341 15.8955 6.80984 15.904 6.21318 15.758 C 5.58972 15.6067 5.12749 15.8628 5.29586 15.7679 C 5.46021 15.6752 2.02224 15.7898 1.95525 20.9716 Z " fill="&stroke_color;" stroke="none" />
 <path d="M 1.69488 23.9388 C 1.69488 23.9388 3.52016 20.1895 5.94656 19.4513 C 7.88304 18.8626 6.54947 18.8712 5.95281 18.7252 C 5.32935 18.5739 4.86711 18.83 5.03548 18.7351 C 5.19939 18.6419 1.76143 18.757 1.69488 23.9388 Z " fill="&stroke_color;" stroke="none" />
 <path d="M 3.01996 23.1205 C 3.01996 23.1205 6.23953 16.5065 10.5202 15.2038 C 13.9368 14.1652 11.584 14.18 10.531 13.9235 C 9.43141 13.6562 8.61591 14.1088 8.91246 13.9409 C 9.20275 13.7766 3.13786 13.979 3.01996 23.1205 Z " fill="&stroke_color;" stroke="none" />
 <path d="M 5.22083 19.5583 C 5.22083 19.5583 7.2234 15.4447 9.88561 14.6344 C 12.0106 13.9884 10.547 13.9978 9.89231 13.838 C 9.20811 13.6719 8.70121 13.953 8.88566 13.8487 C 9.06609 13.7466 5.29407 13.8724 5.22083 19.5583 Z " fill="&stroke_color;" stroke="none" />
 <path d="M 5.87376 21.0115 C 5.87376 21.0115 7.69903 17.2622 10.1254 16.524 C 12.0619 15.9353 10.7284 15.9438 10.1317 15.7979 C 9.50823 15.6466 9.04599 15.9026 9.21436 15.8077 C 9.37827 15.7146 5.94031 15.8297 5.87376 21.0115 Z " fill="&stroke_color;" stroke="none" />
 <path d="M 26.7949 16.4363 C 26.774 16.0454 26.7163 15.9179 24.8495 15.8861 C 25.0635 15.9832 25.4324 16.178 25.8383 16.5119 C 26.3747 16.9524 26.4618 17.4435 26.5172 17.9521 C 26.6989 17.6056 26.832 17.1279 26.7949 16.4363 Z " fill="&stroke_color;" stroke="none" />
 <path d="M 15.8344 11.2137 L 14.2154 13.825 C 14.2154 13.825 7.74146 12.8074 2.25314 18.1298 C 1.79939 18.5694 5.84295 8.71838 15.8344 11.2137 Z " fill="&stroke_color;" stroke="none" />
 <path d="M 10.0205 15.8874 C 10.0205 15.8874 11.7457 12.6767 13.9828 11.7066 C 12.8265 11.7433 10.2299 12.6494 10.0205 15.8874 Z " fill="&stroke_color;" stroke="none" />
 <path d="M 3.38215 19.0211 C 3.38215 19.0211 5.20743 15.2719 7.63383 14.5337 C 9.57031 13.945 8.23675 13.9535 7.64008 13.8075 C 7.01662 13.6562 6.55439 13.9123 6.72276 13.8174 C 6.88711 13.7247 3.4487 13.8393 3.38215 19.0211 Z " fill="&stroke_color;" stroke="none" />
 <path d="M 7.20598 16.3794 C 7.20598 16.3794 9.08931 13.3572 11.3304 12.5527 C 10.2018 12.5155 7.61329 13.2358 7.20598 16.3794 Z " fill="&stroke_color;" stroke="none" />
 <path d="M 10.4349 11.2173 C 10.4349 11.2173 9.01473 11.8391 6.51062 10.7956 L 8.7432 11.9206 L 10.4349 11.2173 Z " fill="&stroke_color;" stroke="none" />
 <path d="M 9.7485 11.6162 C 9.7485 11.6162 7.85579 12.3512 4.21329 11.2571 L 7.32925 12.4999 C 7.71467 12.1426 9.7485 11.6162 9.7485 11.6162 Z " fill="&stroke_color;" stroke="none" />
 <path d="M 11.1298 11.0136 C 11.1298 11.0136 9.87355 11.3968 7.55299 10.497 L 9.78557 11.622 C 10.0214 11.4129 11.1298 11.0136 11.1298 11.0136 Z " fill="&stroke_color;" stroke="none" />
 <path d="M 7.21224 12.4614 C 7.21224 12.4614 6.27883 13.2381 3.88816 13.2699 L 5.95594 13.3375 L 7.21224 12.4614 Z " fill="&stroke_color;" stroke="none" />
 <path d="M 4.94125 16.4358 C 4.94125 16.4358 8.13581 12.2644 10.7668 11.3198 C 9.44124 11.2764 5.41867 12.7461 4.94125 16.4358 Z " fill="&stroke_color;" stroke="none" />
 <path d="M 54.4197 23.5489 C 54.4197 23.5489 54.764 31.2883 44.0388 42.0396 C 42.8468 43.234 36.3751 49.3116 36.6028 51.1349 C 36.6828 51.7791 53.5832 48.5362 54.4197 23.5489 Z " fill="&stroke_color;" stroke="none" />
 <path d="M 33.6262 5.34472 C 46.5447 6.33945 49.0466 15.6506 49.0475 15.0807 C 49.0801 6.02876 36.7909 5.34158 33.6262 5.34472 Z " fill="&stroke_color;" stroke="none" />
 <path d="M 37.5604 8.88447 C 37.5604 8.88447 46.5161 10.7195 49.0421 20.2348 C 49.3771 21.495 47.9631 12.5048 48.3994 13.3581 C 48.8349 14.2158 44.7949 9.16874 37.5604 8.88447 Z " fill="&stroke_color;" stroke="none" />
 <path d="M 41.1399 8.65168 C 41.1399 8.65168 49.2279 10.3416 49.3083 23.2051 C 49.365 32.3098 50.7111 26.6231 52.0464 24.5767 C 53.1978 22.8093 52.4108 20.6551 52.3832 20.6605 C 52.3787 20.6618 51.8003 18.9849 52.1902 19.6953 C 52.2076 19.7267 51.6472 19.2324 51.6512 19.232 C 51.7409 19.2185 51.3399 9.98664 41.1399 8.65168 Z " fill="&stroke_color;" stroke="none" />
 <path d="M 50.2475 10.3945 C 50.2475 10.3945 53.1527 17.9803 50.0738 21.7524 C 49.0689 22.9835 48.9564 29.2907 50.1841 28.7115 C 51.4149 28.1313 51.1474 32.0605 50.9862 32.5077 C 50.9826 32.5162 50.9817 32.5203 50.9835 32.5216 C 51.0639 32.5713 57.0537 22.825 50.2475 10.3945 Z " fill="&stroke_color;" stroke="none" />
 <path d="M 46.2088 18.3805 C 46.2088 18.3805 48.0377 23.7477 46.1227 27.5847 L 47.5714 30.828 C 48.6339 28.2118 49.9867 22.6791 46.2088 18.3805 Z " fill="&stroke_color;" stroke="none" />
 <path d="M 49.4253 17.7421 C 49.4253 17.7421 50.6901 26.2613 46.1262 33.9515 C 46.1968 35.7301 45.8855 37.3399 45.4581 38.6664 C 45.6568 38.9287 45.923 39.1082 46.2741 39.1395 C 46.1191 39.2828 45.965 39.4171 45.8158 39.5442 C 45.5416 39.6656 45.2607 39.794 44.9887 39.9261 C 44.9307 40.0617 44.8722 40.1934 44.815 40.3196 C 45.1187 40.1061 45.4572 39.8469 45.8154 39.5447 C 46.7475 39.1319 47.5862 38.8114 47.5844 38.8096 C 47.5844 38.8096 47.4133 38.8736 47.0025 39.0236 C 46.726 39.1243 46.4844 39.1583 46.2736 39.1395 C 49.7982 35.9199 54.6278 28.72 49.4253 17.7421 Z M 44.1076 40.3899 C 43.7047 40.6267 43.4118 40.8488 43.3492 41.0202 C 43.3032 41.1451 43.5779 41.073 44.0526 40.8058 C 44.0772 40.663 44.0973 40.5229 44.1076 40.3899 Z " fill="&stroke_color;" stroke="none" />
 <path d="M 43.7963 26.8191 C 43.7963 26.8191 47.3946 37.0852 35.8945 46.7101 C 35.2161 47.2782 40.5624 47.0351 41.0305 46.8221 C 42.4087 46.1944 44.0375 42.0064 43.8454 42.5078 C 43.6547 43.0088 49.1855 35.1051 43.7963 26.8191 Z " fill="&stroke_color;" stroke="none" />
 <path d="M 48.8286 33.3305 C 48.8286 33.3305 46.6581 46.6461 31.6518 47.7174 C 25.7758 48.1373 17.339 46.7589 18.0862 49.0054 C 18.3179 49.7019 19.4224 52.606 21.943 53.2797 C 28.7649 55.104 46.9149 54.5068 48.8286 33.3305 Z " fill="&stroke_color;" stroke="none" />
 <path d="M 36.3134 43.4072 C 36.3134 43.4072 27.1317 45.5099 21.1834 40.4342 C 15.7406 35.7887 18.4408 39.6987 19.179 41.6273 C 19.9373 43.6051 15.6718 42.0937 15.0305 41.7759 C 14.3914 41.4621 25.134 48.2152 36.3134 43.4072 Z " fill="&stroke_color;" stroke="none" />
 <path d="M 30.3964 48.4238 C 30.3964 48.4238 19.4434 46.266 15.9755 38.8266 C 13.0123 32.471 13.7965 37.1349 13.663 39.2573 C 13.5228 41.4406 10.4515 38.4591 10.041 37.9402 C 10.0294 37.9277 10.0214 37.9192 10.0205 37.9214 C 9.9593 37.9617 15.6696 46.9349 30.3964 48.4238 Z " fill="&stroke_color;" stroke="none" />
 <path d="M 18.4314 47.4618 C 18.4314 47.4618 13.1999 43.4 10.8413 37.8305 C 8.85931 37.1402 6.2239 35.5622 6.17165 35.2922 C 7.00903 39.6199 11.4175 44.6728 18.4314 47.4618 Z " fill="&stroke_color;" stroke="none" />
</svg>